<?xml version="1.0" encoding="UTF-8"?>
<svg version="1.1" xmlns="http://www.w3.org/2000/svg" width="1024" height="1024">
<path d="M0 0 C0.99 0.33 1.98 0.66 3 1 C2.67 1.33 2.34 1.66 2 2 C2.68460297 1.99777939 3.36920593 1.99555878 4.07455444 1.99327087 C11.17925496 1.97120247 18.2839458 1.95608686 25.38867188 1.94506836 C28.04264725 1.94002958 30.69661984 1.93319849 33.35058594 1.92456055 C37.15821011 1.91247511 40.96579769 1.90676725 44.7734375 1.90234375 C45.96617279 1.89718246 47.15890808 1.89202118 48.38778687 1.88670349 C49.48877716 1.88662796 50.58976746 1.88655243 51.72412109 1.88647461 C53.1830629 1.88314369 53.1830629 1.88314369 54.67147827 1.87974548 C57 2 57 2 59 3 C59.33 2.34 59.66 1.68 60 1 C60 1.66 60 2.32 60 3 C61.89105469 2.89171875 61.89105469 2.89171875 63.8203125 2.78125 C74.5809863 2.20020889 85.2875935 1.89811762 96.06494141 2.03710938 C96.94456543 2.04548828 97.82418945 2.05386719 98.73046875 2.0625 C99.50801514 2.07410156 100.28556152 2.08570313 101.08666992 2.09765625 C103.08659984 2.12380011 103.08659984 2.12380011 105 1 C105 1.66 105 2.32 105 3 C105.53199005 2.9285376 106.0639801 2.8570752 106.61209106 2.78344727 C114.10109243 1.89823851 121.55441167 1.88266295 129.08395004 1.92483521 C131.4130011 1.93775412 133.74199435 1.94415249 136.07107544 1.94897461 C141.00574327 1.96031515 145.94036246 1.97958959 150.875 2 C156.61831439 2.02364477 162.36160214 2.04399043 168.10495377 2.05593872 C170.39608664 2.06240517 172.68713565 2.07490516 174.97824097 2.08764648 C176.38116382 2.09127851 177.78408743 2.0946303 179.18701172 2.09765625 C180.4092746 2.10289307 181.63153748 2.10812988 182.89083862 2.11352539 C185.47015606 2.01934629 187.55382806 1.76747856 190 1 C190 1.66 190 2.32 190 3 C190.66 3 191.32 3 192 3 C192 2.34 192 1.68 192 1 C193.010625 1.165 194.02125 1.33 195.0625 1.5 C198.96883492 2.08004505 198.96883492 2.08004505 202.8125 2 C206 2 206 2 208 3 C208.33 2.34 208.66 1.68 209 1 C209 1.66 209 2.32 209 3 C209.598125 2.814375 210.19625 2.62875 210.8125 2.4375 C213 2 213 2 216 3 C216.33 2.01 216.66 1.02 217 0 C217 0.99 217 1.98 217 3 C217.55236328 2.96970703 218.10472656 2.93941406 218.67382812 2.90820312 C252.20493642 1.10246821 252.20493642 1.10246821 256 3 C256.33 2.34 256.66 1.68 257 1 C257.99 1.33 258.98 1.66 260 2 C261.56671329 2.09141345 263.13704317 2.1262804 264.7064209 2.12698364 C265.67383713 2.12980347 266.64125336 2.13262329 267.63798523 2.13552856 C268.6978212 2.13350433 269.75765717 2.1314801 270.84960938 2.12939453 C271.96688919 2.13114685 273.08416901 2.13289917 274.23530579 2.13470459 C277.9381362 2.13911523 281.64091907 2.13618785 285.34375 2.1328125 C287.91060393 2.13348576 290.47745781 2.13445598 293.04431152 2.13571167 C298.42782252 2.13718758 303.81131555 2.13513254 309.19482422 2.13037109 C315.41995833 2.12492887 321.64505969 2.12669168 327.870193 2.1321975 C333.85721763 2.13728091 339.84422622 2.13674459 345.83125305 2.13381577 C348.37982691 2.1331473 350.9284016 2.13397214 353.47697449 2.13629532 C357.0348026 2.13882652 360.59256726 2.13497455 364.15039062 2.12939453 C365.74014458 2.13243088 365.74014458 2.13243088 367.36201477 2.13552856 C368.329431 2.13270874 369.29684723 2.12988892 370.2935791 2.12698364 C371.13496681 2.12660662 371.97635452 2.12622959 372.84323883 2.12584114 C375.18455756 2.08316512 375.18455756 2.08316512 378 1 C379.62915649 1.0879858 381.25512512 1.24282661 382.875 1.4375 C389.26228431 2.10177757 395.58520397 2.08200734 402 2 C402.99 2 403.98 2 405 2 C406.14855469 1.98259766 406.14855469 1.98259766 407.3203125 1.96484375 C422.87142588 1.81323122 436.92212628 3.3074595 452 7 C453.66430457 7.34493359 455.32988683 7.68438806 457 8 C457 8.66 457 9.32 457 10 C457.69480469 10.10957031 458.38960937 10.21914062 459.10546875 10.33203125 C468.03764328 12.3933023 476.00484336 17.2239163 483 23 C484.45756214 24.10518448 485.915933 25.209303 487.375 26.3125 C512.87626944 46.35544979 528.98123614 72.68715131 534 105 C534.33973747 108.2590593 534.50108394 111.50757859 534.61691284 114.78166199 C534.6545285 115.74885987 534.69214416 116.71605774 534.73089969 117.71256465 C535.25072482 133.03891923 535.14161456 148.38261217 535.13072467 163.7155844 C535.12843492 168.49743831 535.13196768 173.27928877 535.13470459 178.06114197 C535.13912294 187.39597878 535.1382036 196.73080749 535.13529195 206.0656446 C535.13302303 213.65742836 535.13273181 221.24920988 535.13381577 228.84099388 C535.13404561 230.46876245 535.13404561 230.46876245 535.13428011 232.12941524 C535.13459987 234.33465479 535.13492408 236.53989435 535.1352527 238.7451339 C535.13809578 259.36282101 535.13483855 279.98050365 535.12945233 300.59819003 C535.12498219 318.2556478 535.12576424 335.91309899 535.13037109 353.57055664 C535.13573213 374.12798568 535.13782452 394.68541083 535.13475883 415.24284047 C535.13444031 417.43792196 535.13412594 419.63300345 535.13381577 421.82808495 C535.13366149 422.90782686 535.13350721 423.98756877 535.13334826 425.10003013 C535.13248793 432.67757651 535.13393547 440.2551204 535.13629532 447.8326664 C535.13911038 457.07400624 535.13831907 466.3153376 535.13301457 475.55667648 C535.130401 480.26376538 535.12933245 484.97084016 535.13266373 489.67792892 C535.1356752 493.99870045 535.13395441 498.31944498 535.12868617 502.64021411 C535.1275825 504.19098035 535.12810669 505.74174895 535.13056196 507.29251365 C535.14240677 515.40529376 534.99351428 523.48912065 534.56628227 531.59172344 C534.52910835 532.32201242 534.49193443 533.05230139 534.45363403 533.80472033 C532.93796976 559.87061101 522.48408438 583.88013471 505 603 C503.87353376 604.37379904 502.74833361 605.74863827 501.625 607.125 C485.85868022 624.91841804 463.1178938 637.14572292 440 642 C438.86589911 642.24757648 438.86589911 642.24757648 437.7088871 642.5001545 C430.20258441 644.019479 422.93078971 644.34217529 415.28662109 644.40966797 C413.86799994 644.42835913 412.44938663 644.44765243 411.03078079 644.46747208 C407.02205797 644.52002329 403.01330417 644.55848085 399.00439501 644.59363031 C396.3513831 644.61761286 393.69842322 644.64494203 391.04545212 644.67306137 C325.5734803 645.35559427 260.08991181 645.15038764 194.61532924 645.12946293 C180.25884956 645.12495818 165.90237798 645.12579658 151.54589844 645.13037109 C134.63074658 645.1357588 117.71559946 645.13781253 100.80044687 645.13475883 C98.98931336 645.13444044 97.17817986 645.13412607 95.36704636 645.13381577 C94.47715936 645.13366149 93.58727237 645.13350721 92.6704191 645.13334826 C86.51216727 645.13249828 80.35391861 645.1339388 74.19566727 645.13629532 C53.13017845 645.14343546 32.06517537 645.12401478 11 645 C9.87544372 644.99356067 8.75088743 644.98712133 7.59225368 644.98048687 C1.88373728 644.94399534 -3.82354873 644.88585858 -9.53126645 644.78251624 C-11.06288653 644.75630662 -12.59461534 644.73556034 -14.12639689 644.72169328 C-47.09075282 644.38851621 -75.55128394 630.88952569 -99 608 C-112 594.5363766 -112 594.5363766 -112 590 C-112.99 590.33 -113.98 590.66 -115 591 C-115.11730469 590.26910156 -115.23460937 589.53820312 -115.35546875 588.78515625 C-116.75811826 582.72401018 -120.26572079 577.03290451 -125 573 C-124.34 572.67 -123.68 572.34 -123 572 C-123 571.34 -123 570.68 -123 570 C-123.66 569.67 -124.32 569.34 -125 569 C-126.29016547 565.93670136 -127.09777677 562.69616195 -128 559.5 C-128.2690918 558.56124023 -128.53818359 557.62248047 -128.81542969 556.65527344 C-130.6919458 549.82549338 -131.87451012 543.12700226 -132.41796875 536.06835938 C-132.55437337 534.37328248 -132.7690875 532.68480602 -133 531 C-133.66 530.67 -134.32 530.34 -135 530 C-135.0506353 522.93419448 -135.0857062 515.8684356 -135.10986328 508.80249023 C-135.11993201 506.39785005 -135.13358785 503.99322214 -135.15087891 501.58862305 C-135.17508874 498.13587416 -135.18647432 494.6832869 -135.1953125 491.23046875 C-135.20563507 490.15226364 -135.21595764 489.07405853 -135.22659302 487.96318054 C-135.22674408 486.96236954 -135.22689514 485.96155853 -135.22705078 484.93041992 C-135.23371262 483.60804573 -135.23371262 483.60804573 -135.24050903 482.25895691 C-135 480 -135 480 -133 477 C-133.66 477 -134.32 477 -135 477 C-135 461 -135 461 -134 458 C-134.33 457.67 -134.66 457.34 -135 457 C-135.1245486 455.35769636 -135.17568524 453.70947724 -135.1875 452.0625 C-135.20876953 450.71865234 -135.20876953 450.71865234 -135.23046875 449.34765625 C-135 447 -135 447 -133 445 C-133.66 445 -134.32 445 -135 445 C-135 418.66666667 -135 392.33333333 -135 366 C-134.67 366 -134.34 366 -134 366 C-134 359.07 -134 352.14 -134 345 C-134.33 345 -134.66 345 -135 345 C-135 303.33333333 -135 261.66666667 -135 220 C-134.67 220 -134.34 220 -134 220 C-134 210.76 -134 201.52 -134 192 C-134.33 192 -134.66 192 -135 192 C-135 189.36 -135 186.72 -135 184 C-134.67 184 -134.34 184 -134 184 C-133.67 168.16 -133.34 152.32 -133 136 C-133.66 136 -134.32 136 -135 136 C-135.05786668 132.20839703 -135.09355054 128.41690689 -135.125 124.625 C-135.14175781 123.54476562 -135.15851563 122.46453125 -135.17578125 121.3515625 C-135.18222656 120.3203125 -135.18867188 119.2890625 -135.1953125 118.2265625 C-135.20578613 117.27346191 -135.21625977 116.32036133 -135.22705078 115.33837891 C-135 113 -135 113 -133 111 C-132.51103011 108.32855473 -132.10994466 105.68891576 -131.75 103 C-129.35632326 87.08767238 -124.14558447 69.68198059 -114 57 C-112.30831303 54.68354227 -110.65426519 52.34354235 -109 50 C-109.66 49.34 -110.32 48.68 -111 48 C-110.236875 47.731875 -109.47375 47.46375 -108.6875 47.1875 C-106.08247899 46.0364442 -104.75636995 45.19546244 -103 43 C-102.67 42.01 -102.34 41.02 -102 40 C-100.34731229 38.49885632 -98.62793314 37.07026333 -96.875 35.6875 C-93.73651878 33.19198549 -90.64126832 30.71078481 -87.6875 28 C-64.82028621 8.47657691 -34.75876883 0.7375101 -5.14453125 2.125 C-2.69799074 2.16363124 -2.69799074 2.16363124 0 0 Z M333.3125 200.9375 C329.72416653 204.13790553 329.181606 208.49975579 328.84399414 213.14779663 C328.80304274 215.40791342 328.82655503 217.65803167 328.875 219.91796875 C328.88257324 220.73824051 328.89014648 221.55851227 328.89794922 222.40364075 C328.9221708 224.99848556 328.95943238 227.59286256 329 230.1875 C329.05331646 233.61847785 329.09320952 237.04923151 329.125 240.48046875 C329.14989502 241.65091988 329.14989502 241.65091988 329.17529297 242.84501648 C329.21288433 247.02490631 328.89355715 250.24503516 327 254 C326.24396484 253.75636719 326.24396484 253.75636719 325.47265625 253.5078125 C322.12580069 252.8204646 318.83805596 252.85167124 315.4375 252.875 C314.68645996 252.87983398 313.93541992 252.88466797 313.16162109 252.88964844 C310.77405742 252.91433886 308.38724476 252.95406325 306 253 C304.90244385 253.01885254 304.90244385 253.01885254 303.78271484 253.03808594 C262.79394946 253.93893792 217.83484245 264.94431603 184 289 C182.87694479 289.76656744 181.75319638 290.5321199 180.62890625 291.296875 C167.67217967 299.61097069 167.67217967 299.61097069 158 311 C157.43667969 311.25910156 156.87335938 311.51820313 156.29296875 311.78515625 C153.11627842 313.46820683 150.8090322 315.90128782 148.3125 318.4375 C147.81427734 318.92798828 147.31605469 319.41847656 146.80273438 319.92382812 C144.47235151 322.26685893 143.05938764 323.82183707 142 327 C140.948125 327.804375 140.948125 327.804375 139.875 328.625 C135.89071238 331.91636804 133.07213709 335.87084995 130 340 C129.55148682 340.58128662 129.10297363 341.16257324 128.64086914 341.76147461 C106.14099338 371.13843722 91.60731823 407.58947504 87.5625 444.3125 C87.45695801 445.20283936 87.35141602 446.09317871 87.24267578 447.01049805 C86.77882708 451.94541192 86.71860769 454.9504446 90 459 C92.80439543 459.10500675 92.80439543 459.10500675 96 458 C98.2835529 455.67858108 99.941726 452.98799128 101.6875 450.25 C102.73202122 448.69067786 103.78158223 447.13472087 104.8359375 445.58203125 C105.36155273 444.80682129 105.88716797 444.03161133 106.42871094 443.23291016 C110.2249562 437.83818374 114.6504893 432.94896249 119 428 C119.5775 427.31164062 120.155 426.62328125 120.75 425.9140625 C124.64358427 421.30016514 128.87020943 417.02782798 133.125 412.75 C133.72352783 412.14679932 134.32205566 411.54359863 134.9387207 410.92211914 C137.52242165 408.34775471 140.05378186 405.95783502 142.9296875 403.703125 C143.61289062 403.14109375 144.29609375 402.5790625 145 402 C145 401.34 145 400.68 145 400 C145.71800781 399.75121094 146.43601562 399.50242187 147.17578125 399.24609375 C150.29191012 397.87120425 152.5265848 396.18585658 155.1875 394.0625 C198.5024889 360.6788673 251.12551307 351.74227153 304.375 351.9375 C306.76822823 351.94252507 309.16145748 351.94708619 311.5546875 351.95117188 C317.36981426 351.96209764 323.18490226 351.97875592 329 352 C328.99476318 353.25546631 328.98952637 354.51093262 328.98413086 355.80444336 C328.96592933 360.49535398 328.95451294 365.18626152 328.94506836 369.87719727 C328.94006262 371.90129116 328.93325604 373.92538148 328.92456055 375.94946289 C328.91232941 378.87126552 328.90673395 381.79302004 328.90234375 384.71484375 C328.89460182 386.05602516 328.89460182 386.05602516 328.88670349 387.42430115 C328.54259734 398.14891286 328.54259734 398.14891286 332 408 C336.62339957 409.22127536 339.82862369 409.41500734 344 407 C346.81331378 404.60416349 346.81331378 404.60416349 349 402 C349 401.34 349 400.68 349 400 C349.5692218 399.75544067 350.1384436 399.51088135 350.72491455 399.25891113 C353.40806596 397.77419803 355.23006655 396.02414647 357.40136719 393.85742188 C358.6922525 392.57599304 358.6922525 392.57599304 360.00921631 391.26867676 C360.92914368 390.34470093 361.84907104 389.4207251 362.796875 388.46875 C363.75493637 387.51203629 364.71329443 386.5556196 365.67193604 385.5994873 C367.67567264 383.59869437 369.67575889 381.59434051 371.67333984 379.58740234 C374.2379383 377.01137893 376.81145211 374.44447901 379.38773727 371.88014984 C381.36612446 369.9089754 383.339741 367.93308003 385.3119278 365.95570374 C386.7207719 364.54487229 388.13365318 363.13807611 389.54656982 361.73132324 C390.39455139 360.87703735 391.24253296 360.02275146 392.11621094 359.14257812 C393.24394928 358.012453 393.24394928 358.012453 394.39447021 356.85949707 C396.21784224 355.15715158 396.21784224 355.15715158 396 353 C396.57111511 352.75223816 397.14223022 352.50447632 397.73065186 352.24920654 C400.35944369 350.80213727 402.16763263 349.11495773 404.30957031 347.01269531 C405.15013977 346.19134094 405.99070923 345.36998657 406.85675049 344.52374268 C407.75480408 343.63418884 408.65285767 342.74463501 409.578125 341.828125 C410.96798615 340.45536407 410.96798615 340.45536407 412.38592529 339.05487061 C414.34319239 337.11857183 416.29579451 335.17769009 418.24609375 333.234375 C420.74343369 330.74802311 423.25879221 328.28077756 425.7788887 325.81752396 C428.18343534 323.45921255 430.56674523 321.07981611 432.953125 318.703125 C434.31235077 317.38093964 434.31235077 317.38093964 435.69903564 316.03204346 C436.52699646 315.19808044 437.35495728 314.36411743 438.20800781 313.50488281 C438.94206848 312.7781134 439.67612915 312.05134399 440.43243408 311.30255127 C442.15904657 309.0568534 442.15904657 309.0568534 442.67449951 306.21844482 C441.63012298 301.23509318 438.51167335 298.54991832 435 295 C433.94408976 293.90437839 433.94408976 293.90437839 432.86684799 292.786623 C430.4823664 290.33099127 428.07223165 287.90291062 425.65576172 285.47875977 C424.74593536 284.56236221 423.83610901 283.64596466 422.89871216 282.70179749 C419.91254853 279.69483106 416.92126529 276.69298462 413.9296875 273.69140625 C412.89490786 272.65257292 411.86015998 271.61370795 410.82544327 270.57481194 C405.97079895 265.70118425 401.11379482 260.82992372 396.25383747 255.96159416 C390.65525708 250.35320608 385.06509051 244.73659982 379.48176754 239.11302334 C375.15314531 234.75427075 370.816903 230.40319457 366.47484791 226.0578236 C363.88598891 223.46661473 361.30053835 220.87220815 358.7231102 218.26962471 C355.85485414 215.37381802 352.97099828 212.49405378 350.08544922 209.61547852 C349.23545349 208.75267273 348.38545776 207.88986694 347.50970459 207.00091553 C346.72201691 206.22017166 345.93432922 205.4394278 345.12277222 204.63502502 C344.44328459 203.95314904 343.76379696 203.27127306 343.0637188 202.56873417 C339.76139521 200.05847557 337.21434053 199.57639284 333.3125 200.9375 Z M-134 301 C-133 304 -133 304 -133 304 Z M-134 305 C-134 310.94 -134 316.88 -134 323 C-133.67 323 -133.34 323 -133 323 C-133 317.06 -133 311.12 -133 305 C-133.33 305 -133.66 305 -134 305 Z M-134 430 C-134 434.62 -134 439.24 -134 444 C-133.67 444 -133.34 444 -133 444 C-133 439.38 -133 434.76 -133 430 C-133.33 430 -133.66 430 -134 430 Z M-134 497 C-134 507.23 -134 517.46 -134 528 C-133.67 528 -133.34 528 -133 528 C-133 517.77 -133 507.54 -133 497 C-133.33 497 -133.66 497 -134 497 Z M-123 573 C-122 575 -122 575 -122 575 Z " fill="#1A604D" transform="translate(311,192)"/>
<path d="M0 0 C34.25310097 -0.20151517 34.25310097 -0.20151517 48.67773438 -0.24414062 C58.61235556 -0.2737348 68.54676372 -0.30840283 78.48120117 -0.37719727 C85.71849983 -0.42729021 92.95562459 -0.45935165 100.19309181 -0.47044247 C104.0195524 -0.47691786 107.84551584 -0.49195799 111.67181587 -0.52865028 C115.28592056 -0.56302132 118.89933151 -0.57297205 122.51358414 -0.56553841 C124.44667244 -0.56753337 126.37968817 -0.59421058 128.31257629 -0.62210083 C143.83778419 -0.53244289 157.65317372 5.10113431 169.1875 15.5625 C176.03232559 22.78759368 181.02724242 32.55712299 184 42 C184.27665072 42.85285269 184.27665072 42.85285269 184.55889034 43.72293472 C185.20815455 47.07452077 185.1336506 50.4080141 185.12025452 53.80804443 C185.12153615 54.99535939 185.12153615 54.99535939 185.12284368 56.20666051 C185.12449201 58.86142944 185.11898767 61.51613532 185.11352539 64.17089844 C185.11324335 66.07294208 185.11340158 67.97498584 185.1139679 69.87702942 C185.11425522 75.04399265 185.10836886 80.21093274 185.10139394 85.37789059 C185.09514972 90.77644166 185.09455575 96.17499324 185.09336853 101.57354736 C185.09025838 111.79800904 185.08204922 122.02246004 185.07201904 132.24691701 C185.06084813 143.8864483 185.05534498 155.5259801 185.05032361 167.16551542 C185.03986636 191.11034954 185.022273 215.05517417 185 239 C184.51884232 238.58695114 184.03768463 238.17390228 183.54194641 237.74833679 C182.91104599 237.20707657 182.28014557 236.66581635 181.63012695 236.1081543 C180.69182793 235.30295601 180.69182793 235.30295601 179.73457336 234.48149109 C178.47020434 233.40159935 177.19671749 232.33235619 175.91796875 231.26953125 C170.94806027 227.08493562 166.67168685 222.43599775 162.39453125 217.55078125 C160.11974941 214.99389672 160.11974941 214.99389672 157.63671875 213.16796875 C155.39004512 211.32070377 153.6969839 209.58089596 151.8203125 207.38671875 C147.43554267 202.2624493 142.66435616 197.55587268 137.875 192.8125 C136.55435547 191.49862305 136.55435547 191.49862305 135.20703125 190.15820312 C133.5260763 188.48612199 131.84378104 186.81538681 130.15991211 185.14624023 C128.47107385 183.46809204 126.79305912 181.78080214 125.12109375 180.0859375 C122.65600899 177.66171049 120.04185568 175.50290683 117.35546875 173.33203125 C116.90816406 172.89246094 116.46085938 172.45289063 116 172 C116 171.34 116 170.68 116 170 C115.34 170 114.68 170 114 170 C112.51953125 168.4609375 112.51953125 168.4609375 110.8125 166.375 C108.5164131 163.66533223 106.24982196 161.24703284 103.5 159 C100.97169605 156.92824398 98.8370098 154.75420245 96.72314453 152.26269531 C93.27736202 148.27576245 89.66095217 144.51564306 85.9296875 140.796875 C85.28556915 140.15179993 84.64145081 139.50672485 83.97781372 138.84210205 C82.62950267 137.49311645 81.27995193 136.14536885 79.92919922 134.79882812 C77.86960334 132.74461745 75.81543826 130.68508383 73.76171875 128.625 C72.44302906 127.3069707 71.12402942 125.98925142 69.8046875 124.671875 C69.19623993 124.0614032 68.58779236 123.4509314 67.96090698 122.82196045 C64.78096988 119.65937582 61.55191108 116.75102833 58 114 C53.81701336 110.04940151 50.06726463 105.72826539 46.28125 101.40234375 C42.65753711 97.58627624 40.36620804 95.19517258 35.0625 94.4375 C30.36076589 94.66011999 28.21917695 96.70230654 25 100 C23.76939579 102.46120841 23.7942277 104.25776866 23.68359375 107.0078125 C23.64548584 107.8961377 23.60737793 108.78446289 23.56811523 109.69970703 C23.50346069 111.39522705 23.50346069 111.39522705 23.4375 113.125 C23.293125 116.71375 23.14875 120.3025 23 124 C15.41 124 7.82 124 0 124 C0 83.08 0 42.16 0 0 Z " fill="#4E9174" transform="translate(610,245)"/>
<path d="M0 0 C55.44 0 110.88 0 168 0 C168 40.92 168 81.84 168 124 C112.56 124 57.12 124 0 124 C0 83.08 0 42.16 0 0 Z " fill="#4E9174" transform="translate(412,245)"/>
<path d="M0 0 C1.60703969 -0.0003616 1.60703969 -0.0003616 3.24654484 -0.00073051 C6.69773364 0.00075645 10.1487036 0.01596107 13.59985352 0.03173828 C15.73726294 0.03468062 17.87467381 0.03671989 20.01208496 0.0378418 C27.91766527 0.04830696 35.82321469 0.07622948 43.72875977 0.10205078 C70.24219727 0.16392578 70.24219727 0.16392578 97.29125977 0.22705078 C97.29125977 41.14705078 97.29125977 82.06705078 97.29125977 124.22705078 C46.80125977 124.22705078 -3.68874023 124.22705078 -55.70874023 124.22705078 C-55.70874023 34.1500871 -55.70874023 34.1500871 -37.95874023 15.41064453 C-27.10404673 4.87631525 -15.00398359 -0.10943879 0 0 Z " fill="#4E9174" transform="translate(283.708740234375,244.77294921875)"/>
<path d="M0 0 C50.49 0 100.98 0 153 0 C153 37.95 153 75.9 153 115 C102.51 115 52.02 115 0 115 C0 77.05 0 39.1 0 0 Z " fill="#4E9174" transform="translate(228,399)"/>
<path d="M0 0 C50.49 0 100.98 0 153 0 C153 36.63 153 73.26 153 111 C102.51 111 52.02 111 0 111 C0 74.37 0 37.74 0 0 Z " fill="#4E9174" transform="translate(228,545)"/>
<path d="M0 0 C55.44 0 110.88 0 168 0 C168 32.01 168 64.02 168 97 C112.56 97 57.12 97 0 97 C0 64.99 0 32.98 0 0 Z " fill="#4E9174" transform="translate(412,686)"/>
<path d="M0 0 C50.49 0 100.98 0 153 0 C153 32.01 153 64.02 153 97 C126.52818584 97.16043524 126.52818584 97.16043524 115.1953125 97.1953125 C107.47937947 97.21917152 99.76363733 97.24731768 92.04785156 97.30175781 C85.82327438 97.34539879 79.59890209 97.36917579 73.37418365 97.37950897 C71.00606311 97.3868676 68.63795306 97.40123689 66.26992035 97.42292023 C47.01297785 97.59214724 31.78388122 95.82170287 17.0078125 82.15234375 C-4.90957718 58.65724314 0 32.0826992 0 0 Z " fill="#4E9175" transform="translate(228,686)"/>
<path d="M0 0 C39.93 0 79.86 0 121 0 C119.31282117 3.37435767 115.41077482 4.09984378 112.0625 5.5 C86.88118667 16.38662961 64.58410101 31.98107184 44 50 C43.2260791 50.67699951 43.2260791 50.67699951 42.43652344 51.36767578 C30.21069958 62.13804442 19.89202734 74.08560377 10 87 C9.02908384 88.25945236 8.05772819 89.51856605 7.0859375 90.77734375 C4.71803943 93.84705356 2.35708673 96.92198218 0 100 C-1.72490902 96.55018196 -1.07572254 92.56997181 -1.02172852 88.77685547 C-1.01193686 87.8052202 -1.00214521 86.83358494 -0.99205685 85.83250618 C-0.95909758 82.67732743 -0.91912313 79.52228124 -0.87890625 76.3671875 C-0.85757062 74.42326348 -0.83669323 72.47933436 -0.81628418 70.53540039 C-0.73725165 63.3152039 -0.64933115 56.09510691 -0.5625 48.875 C-0.376875 32.74625 -0.19125 16.6175 0 0 Z " fill="#4D9174" transform="translate(412,399)"/>
<path d="M0 0 C0.33 0 0.66 0 1 0 C1 138.6 1 277.2 1 420 C0.01 419.67 -0.98 419.34 -2 419 C-2.0506353 411.93419448 -2.0857062 404.8684356 -2.10986328 397.80249023 C-2.11993201 395.39785005 -2.13358785 392.99322214 -2.15087891 390.58862305 C-2.17508874 387.13587416 -2.18647432 383.6832869 -2.1953125 380.23046875 C-2.20563507 379.15226364 -2.21595764 378.07405853 -2.22659302 376.96318054 C-2.22674408 375.96236954 -2.22689514 374.96155853 -2.22705078 373.93041992 C-2.23371262 372.60804573 -2.23371262 372.60804573 -2.24050903 371.25895691 C-2 369 -2 369 0 366 C-0.66 366 -1.32 366 -2 366 C-2 350 -2 350 -1 347 C-1.33 346.67 -1.66 346.34 -2 346 C-2.1245486 344.35769636 -2.17568524 342.70947724 -2.1875 341.0625 C-2.20876953 339.71865234 -2.20876953 339.71865234 -2.23046875 338.34765625 C-2 336 -2 336 0 334 C-0.66 334 -1.32 334 -2 334 C-2 307.66666667 -2 281.33333333 -2 255 C-1.67 255 -1.34 255 -1 255 C-1 248.07 -1 241.14 -1 234 C-1.33 234 -1.66 234 -2 234 C-2 192.33333333 -2 150.66666667 -2 109 C-1.67 109 -1.34 109 -1 109 C-1 99.76 -1 90.52 -1 81 C-1.33 81 -1.66 81 -2 81 C-2 78.36 -2 75.72 -2 73 C-1.67 73 -1.34 73 -1 73 C-0.67 57.16 -0.34 41.32 0 25 C-0.66 25 -1.32 25 -2 25 C-2.05786668 21.20839703 -2.09355054 17.41690689 -2.125 13.625 C-2.14175781 12.54476563 -2.15851563 11.46453125 -2.17578125 10.3515625 C-2.18222656 9.3203125 -2.18867188 8.2890625 -2.1953125 7.2265625 C-2.20578613 6.27346191 -2.21625977 5.32036133 -2.22705078 4.33837891 C-2 2 -2 2 0 0 Z M-1 190 C0 193 0 193 0 193 Z M-1 194 C-1 199.94 -1 205.88 -1 212 C-0.67 212 -0.34 212 0 212 C0 206.06 0 200.12 0 194 C-0.33 194 -0.66 194 -1 194 Z M-1 319 C-1 323.62 -1 328.24 -1 333 C-0.67 333 -0.34 333 0 333 C0 328.38 0 323.76 0 319 C-0.33 319 -0.66 319 -1 319 Z M-1 386 C-1 396.23 -1 406.46 -1 417 C-0.67 417 -0.34 417 0 417 C0 406.77 0 396.54 0 386 C-0.33 386 -0.66 386 -1 386 Z " fill="#428A70" transform="translate(178,303)"/>
<path d="M0 0 C0.33 0.99 0.66 1.98 1 3 C1.55236328 2.96970703 2.10472656 2.93941406 2.67382812 2.90820312 C36.20493642 1.10246821 36.20493642 1.10246821 40 3 C40.33 2.34 40.66 1.68 41 1 C41.99 1.33 42.98 1.66 44 2 C45.56671329 2.09141345 47.13704317 2.1262804 48.7064209 2.12698364 C49.67383713 2.12980347 50.64125336 2.13262329 51.63798523 2.13552856 C52.6978212 2.13350433 53.75765717 2.1314801 54.84960938 2.12939453 C55.96688919 2.13114685 57.08416901 2.13289917 58.23530579 2.13470459 C61.9381362 2.13911523 65.64091907 2.13618785 69.34375 2.1328125 C71.91060393 2.13348576 74.47745781 2.13445598 77.04431152 2.13571167 C82.42782252 2.13718758 87.81131555 2.13513254 93.19482422 2.13037109 C99.41995833 2.12492887 105.64505969 2.12669168 111.870193 2.1321975 C117.85721763 2.13728091 123.84422622 2.13674459 129.83125305 2.13381577 C132.37982691 2.1331473 134.9284016 2.13397214 137.47697449 2.13629532 C141.0348026 2.13882652 144.59256726 2.13497455 148.15039062 2.12939453 C149.74014458 2.13243088 149.74014458 2.13243088 151.36201477 2.13552856 C152.329431 2.13270874 153.29684723 2.12988892 154.2935791 2.12698364 C155.13496681 2.12660662 155.97635452 2.12622959 156.84323883 2.12584114 C159.18455756 2.08316512 159.18455756 2.08316512 162 1 C163.62915649 1.0879858 165.25512512 1.24282661 166.875 1.4375 C173.26228431 2.10177757 179.58520397 2.08200734 186 2 C186.99 2 187.98 2 189 2 C189.82371094 1.98839844 190.64742187 1.97679687 191.49609375 1.96484375 C211.17288802 1.78192534 211.17288802 1.78192534 216 5 C194.80175077 5.96808321 173.64333254 6.15038703 152.42675829 6.1343255 C147.91523213 6.13173766 143.40370767 6.13415693 138.8921814 6.13571167 C131.32329944 6.13751544 123.75442733 6.13517511 116.18554688 6.13037109 C107.52411979 6.12493595 98.86271629 6.12669305 90.20128977 6.1321975 C82.67165417 6.13678511 75.14202552 6.13735186 67.61238897 6.13475883 C63.15618657 6.13322617 58.69999512 6.13291674 54.24379349 6.13629532 C33.13971805 6.15018182 12.08765852 5.88243457 -9 5 C-9.33 4.34 -9.66 3.68 -10 3 C-9.34 3 -8.68 3 -8 3 C-7.67 2.34 -7.34 1.68 -7 1 C-7 1.66 -7 2.32 -7 3 C-6.401875 2.814375 -5.80375 2.62875 -5.1875 2.4375 C-3 2 -3 2 0 3 C0 2.01 0 1.02 0 0 Z " fill="#1B5E4A" transform="translate(527,192)"/>
<path d="M0 0 C0.33 0 0.66 0 1 0 C1.00423194 1.28290232 1.00846388 2.56580463 1.01282406 3.88758278 C1.11349018 34.33813425 1.21919769 64.78866357 1.33111694 95.2391756 C1.34488659 98.98676146 1.35861367 102.73434748 1.37231445 106.48193359 C1.37504276 107.22801342 1.37777106 107.97409325 1.38058204 108.74278156 C1.42466218 120.82465763 1.46529408 132.90654296 1.50465261 144.98843522 C1.54511202 157.38471441 1.58927482 169.78097641 1.63687855 182.17723024 C1.6661379 189.82693358 1.69250542 197.47663568 1.71517897 205.12636141 C1.7328717 210.99125616 1.75571592 216.85612371 1.78049088 222.72099304 C1.7898485 225.12762736 1.79752841 227.53426886 1.80341911 229.94091415 C1.81170212 233.22314743 1.82598511 236.50530164 1.84178162 239.7875061 C1.84275972 240.74276613 1.84373783 241.69802615 1.84474558 242.68223345 C1.87309827 247.25431772 2.19155699 251.48925147 3 256 C3.0878042 258.22354352 3.12625471 260.44934524 3.12698364 262.67462158 C3.12932363 263.6433137 3.12932363 263.6433137 3.13171089 264.63157535 C3.13567933 266.78207648 3.13254724 268.93250623 3.12939453 271.08300781 C3.13075058 272.63102255 3.13253165 274.17903697 3.13470459 275.72705078 C3.13925929 279.92612532 3.13749621 284.12517526 3.1343255 288.32425022 C3.13178635 292.73608527 3.13414428 297.14791828 3.13571167 301.55975342 C3.13753111 308.98092016 3.13513534 316.40207696 3.13037109 323.82324219 C3.12495297 332.36061701 3.12667412 340.89796785 3.1321975 349.43534207 C3.13676392 356.79194887 3.13736132 364.14854852 3.13475883 371.50515628 C3.13321224 375.88640913 3.13295681 380.2676508 3.13629532 384.64890289 C3.13922472 388.78247675 3.13710721 392.91602041 3.13140106 397.04959106 C3.13009919 398.55138855 3.13042261 400.05318867 3.13266373 401.55498505 C3.1435447 409.60050212 2.99962915 417.62755737 2.61691284 425.66473389 C2.58655603 426.40879651 2.55619921 427.15285914 2.52492249 427.91946912 C2.2912206 432.25687967 1.5705172 435.95047819 0 440 C-0.33 440 -0.66 440 -1 440 C-0.67 294.8 -0.34 149.6 0 0 Z " fill="#0E4231" transform="translate(843,298)"/>
<path d="M0 0 C39.93 0 79.86 0 121 0 C120 2 120 2 117.625 3.1875 C115 4 115 4 112 3 C110.47747782 2.899594 108.9510288 2.85384995 107.42524719 2.84178162 C106.4871521 2.8319928 105.54905701 2.82220398 104.58253479 2.81211853 C103.04181557 2.80348534 103.04181557 2.80348534 101.4699707 2.79467773 C99.84534409 2.77982834 99.84534409 2.77982834 98.18789673 2.76467896 C94.6005473 2.73303945 91.01318461 2.70829674 87.42578125 2.68359375 C84.94141797 2.66302635 82.4570582 2.64202993 79.97270203 2.62062073 C74.09731676 2.57102732 68.22191055 2.52576769 62.34647483 2.48259836 C55.00112854 2.42836417 47.6558417 2.36741788 40.31054688 2.30664062 C27.20707091 2.19903214 14.10355557 2.09740657 1 2 C1.01918991 3.19825409 1.03837982 4.39650818 1.05815125 5.631073 C1.23670303 16.90282414 1.39945452 28.17470641 1.54658794 39.44691277 C1.62274956 45.24259395 1.70454973 51.03808297 1.79907227 56.83349609 C1.89002298 62.42246469 1.96637643 68.01145671 2.03244972 73.60077286 C2.06030164 75.73716847 2.09348565 77.8735012 2.13199425 80.00973129 C2.18488223 82.99331542 2.21910239 85.97655694 2.2487793 88.96044922 C2.26891586 89.85092957 2.28905243 90.74140991 2.30979919 91.65887451 C2.32279968 94.11495972 2.32279968 94.11495972 2 98 C0.515 98.99 0.515 98.99 -1 100 C-0.67 67 -0.34 34 0 0 Z " fill="#5FA584" transform="translate(412,399)"/>
<path d="M0 0 C0.77160764 2.74599072 1.12944553 5.19725543 1.14526367 8.04663086 C1.15164352 8.83102036 1.15802338 9.61540985 1.16459656 10.42356873 C1.16570938 11.26218948 1.1668222 12.10081024 1.16796875 12.96484375 C1.17129715 13.83516739 1.17462555 14.70549103 1.17805481 15.60218811 C1.18311074 17.44043449 1.18546355 19.27869003 1.18530273 21.11694336 C1.18748934 23.92381955 1.20565943 26.73030267 1.22460938 29.53710938 C1.22754358 31.32551949 1.22952819 33.11393147 1.23046875 34.90234375 C1.23765427 35.73894028 1.24483978 36.5755368 1.25224304 37.43748474 C1.23560417 41.69662825 1.12783025 45.17982201 -1 49 C-1.99 49.495 -1.99 49.495 -3 50 C-4.485 49.505 -4.485 49.505 -6 49 C-8.57265818 48.92970879 -11.11641431 48.90629168 -13.6875 48.9375 C-14.38939453 48.94201172 -15.09128906 48.94652344 -15.81445312 48.95117188 C-17.54300538 48.96293073 -19.27151365 48.98086546 -21 49 C-21.33 48.34 -21.66 47.68 -22 47 C-15.07 47 -8.14 47 -1 47 C-2.08108449 45.69338505 -2.08108449 45.69338505 -4.68383789 45.88647461 C-6.43555298 45.89432983 -6.43555298 45.89432983 -8.22265625 45.90234375 C-9.48271484 45.90556641 -10.74277344 45.90878906 -12.04101562 45.91210938 C-13.38151109 45.92046597 -14.72200588 45.92893093 -16.0625 45.9375 C-17.40689942 45.9425134 -18.7513006 45.94707658 -20.09570312 45.95117188 C-23.39717941 45.96300512 -26.69856803 45.97949029 -30 46 C-30 45.67 -30 45.34 -30 45 C-21.09 45 -12.18 45 -3 45 C-3 30.81 -3 16.62 -3 2 C-2.01 2 -1.02 2 0 2 C0 1.34 0 0.68 0 0 Z " fill="#276E57" transform="translate(640,397)"/>
<path d="M0 0 C7.51041694 -0.04632915 15.02081906 -0.08187214 22.53134632 -0.10362434 C26.01875161 -0.11406404 29.50605916 -0.12822649 32.9934082 -0.15087891 C37.00212546 -0.17675512 41.01073997 -0.18647123 45.01953125 -0.1953125 C46.27272659 -0.20563507 47.52592194 -0.21595764 48.8170929 -0.22659302 C50.55855843 -0.22681961 50.55855843 -0.22681961 52.33520508 -0.22705078 C53.35890701 -0.231492 54.38260895 -0.23593323 55.43733215 -0.24050903 C58 0 58 0 61 2 C58.31900947 3.34049527 56.26688794 3.1198052 53.26513672 3.11352539 C52.06404266 3.11344986 50.86294861 3.11337433 49.62545776 3.11329651 C48.32335358 3.10813522 47.02124939 3.10297394 45.6796875 3.09765625 C44.33733167 3.09579138 42.99497516 3.0943678 41.65261841 3.09336853 C38.11804325 3.08954878 34.58350913 3.07972312 31.0489502 3.06866455 C27.44279536 3.05843878 23.8366339 3.05386841 20.23046875 3.04882812 C13.15362904 3.03810038 6.0768172 3.02103045 -1 3 C-0.67 2.01 -0.34 1.02 0 0 Z " fill="#134838" transform="translate(426,194)"/>
<path d="M0 0 C0.33 0.66 0.66 1.32 1 2 C1.845625 1.91621094 2.69125 1.83242187 3.5625 1.74609375 C9.92574237 1.17484813 15.70148662 0.88849764 22 2 C22 2.66 22 3.32 22 4 C5.17 4 -11.66 4 -29 4 C-29.33 3.34 -29.66 2.68 -30 2 C-26.45701712 1.1932654 -23.18168116 0.87161658 -19.55078125 0.8671875 C-18.53822266 0.86589844 -17.52566406 0.86460937 -16.48242188 0.86328125 C-15.43634766 0.86714844 -14.39027344 0.87101563 -13.3125 0.875 C-12.25482422 0.87113281 -11.19714844 0.86726562 -10.10742188 0.86328125 C-8.59438477 0.86521484 -8.59438477 0.86521484 -7.05078125 0.8671875 C-5.66886597 0.86887939 -5.66886597 0.86887939 -4.2590332 0.87060547 C-2 1 -2 1 0 2 C0 1.34 0 0.68 0 0 Z " fill="#0F4334" transform="translate(370,193)"/>
<path d="M0 0 C0.99 0.33 1.98 0.66 3 1 C2.67 1.33 2.34 1.66 2 2 C3.43279297 1.98259766 3.43279297 1.98259766 4.89453125 1.96484375 C12.66568301 1.91060839 20.26804814 2.09981434 28 3 C27.67 3.66 27.34 4.32 27 5 C12.81 5 -1.38 5 -16 5 C-15.67 4.01 -15.34 3.02 -15 2 C-13.75283203 2.03480469 -13.75283203 2.03480469 -12.48046875 2.0703125 C-11.39378906 2.08835938 -10.30710937 2.10640625 -9.1875 2.125 C-8.10855469 2.14820313 -7.02960938 2.17140625 -5.91796875 2.1953125 C-2.80597132 2.23023717 -2.80597132 2.23023717 0 0 Z " fill="#225C49" transform="translate(311,192)"/>
<path d="M0 0 C0.99 0.33 1.98 0.66 3 1 C1.89718873 2.27200971 0.79269231 3.54255853 -0.3125 4.8125 C-0.92738281 5.52019531 -1.54226563 6.22789062 -2.17578125 6.95703125 C-3.73477983 8.70297612 -5.32990656 10.36184824 -7 12 C-7.845625 12.86625 -8.69125 13.7325 -9.5625 14.625 C-12 17 -12 17 -14 18 C-14.33 18.99 -14.66 19.98 -15 21 C-17.375 22.75 -17.375 22.75 -20 24 C-20.99 23.67 -21.98 23.34 -23 23 C-15.41 15.41 -7.82 7.82 0 0 Z " fill="#266650" transform="translate(750,503)"/>
<path d="M0 0 C1.62359532 0.22549935 3.24654077 0.45698589 4.86523438 0.71533203 C9.64664279 1.35292606 14.50679606 1.367719 19.32421875 1.51757812 C20.14019531 1.55173828 20.95617187 1.58589844 21.796875 1.62109375 C22.53260742 1.6461499 23.26833984 1.67120605 24.02636719 1.69702148 C26 2 26 2 29 4 C25.0347593 4.02497729 21.06954995 4.0429894 17.10424805 4.05493164 C15.10268542 4.06235104 13.10114467 4.07506659 11.09960938 4.08789062 C4.30874075 4.10499609 -2.27165501 3.93798004 -9 3 C-9 2.67 -9 2.34 -9 2 C-6.94921875 1.77213542 -4.8984375 1.54427083 -2.84765625 1.31640625 C-0.98859771 1.18113386 -0.98859771 1.18113386 0 0 Z " fill="#1A5240" transform="translate(714,193)"/>
<path d="M0 0 C-0.33 0.66 -0.66 1.32 -1 2 C-12.22 2 -23.44 2 -35 2 C-35.33 1.34 -35.66 0.68 -36 0 C-23.9548839 -1.23539652 -12.02947243 -1.55218999 0 0 Z " fill="#114636" transform="translate(639,195)"/>
<path d="M0 0 C4.62 0 9.24 0 14 0 C14 0.66 14 1.32 14 2 C27.53 2 41.06 2 55 2 C55 2.33 55 2.66 55 3 C39.16 3 23.32 3 7 3 C7 2.34 7 1.68 7 1 C4.69 1 2.38 1 0 1 C0 0.67 0 0.34 0 0 Z " fill="#226853" transform="translate(281,195)"/>
<path d="M0 0 C0.33 0.99 0.66 1.98 1 3 C2.10859375 2.90460938 3.2171875 2.80921875 4.359375 2.7109375 C5.82287083 2.5983609 7.28641526 2.48641476 8.75 2.375 C9.47960937 2.31054688 10.20921875 2.24609375 10.9609375 2.1796875 C14.85911736 1.89618351 17.70645322 1.72918617 21 4 C20 5 20 5 17.22436523 5.11352539 C16.01466064 5.10828857 14.80495605 5.10305176 13.55859375 5.09765625 C12.25341797 5.09443359 10.94824219 5.09121094 9.60351562 5.08789062 C8.2148431 5.07953401 6.82617123 5.07106905 5.4375 5.0625 C4.04492344 5.05748666 2.65234519 5.05292347 1.25976562 5.04882812 C-2.1601987 5.03699434 -5.58007844 5.0205088 -9 5 C-9.33 4.34 -9.66 3.68 -10 3 C-9.34 3 -8.68 3 -8 3 C-7.67 2.34 -7.34 1.68 -7 1 C-7 1.66 -7 2.32 -7 3 C-6.401875 2.814375 -5.80375 2.62875 -5.1875 2.4375 C-3 2 -3 2 0 3 C0 2.01 0 1.02 0 0 Z " fill="#185341" transform="translate(527,192)"/>
<path d="M0 0 C0.33 0.66 0.66 1.32 1 2 C1.763125 1.79375 2.52625 1.5875 3.3125 1.375 C6 1 6 1 9 3 C8 4 8 4 5.22436523 4.11352539 C4.01466064 4.10828857 2.80495605 4.10305176 1.55859375 4.09765625 C0.25341797 4.09443359 -1.05175781 4.09121094 -2.39648438 4.08789062 C-3.7851569 4.07953401 -5.17382877 4.07106905 -6.5625 4.0625 C-7.95507656 4.05748666 -9.34765481 4.05292347 -10.74023438 4.04882812 C-14.1601987 4.03699434 -17.58007844 4.0205088 -21 4 C-21.33 3.34 -21.66 2.68 -22 2 C-15.95724676 0.84899938 -10.05417917 0.95908751 -3.9140625 1.0625 C-1.10785647 1.33845042 -1.10785647 1.33845042 0 0 Z " fill="#144A3A" transform="translate(415,193)"/>
<path d="M0 0 C2.46680502 2.45370694 4.91905208 4.91537881 7.32421875 7.4296875 C12.78493386 13.0799481 18.38953164 17.75242246 25 22 C24.34 22.66 23.68 23.32 23 24 C1.89809651 8.37741611 1.89809651 8.37741611 0.265625 2.23828125 C0.17796875 1.49964844 0.0903125 0.76101563 0 0 Z " fill="#215845" transform="translate(207,791)"/>
<path d="M0 0 C4.06096888 1.61990297 6.80123905 4.51221642 9.82421875 7.55859375 C10.37108841 8.10354996 10.91795807 8.64850616 11.48139954 9.2099762 C12.63271939 10.3599384 13.78153078 11.51241683 14.92797852 12.66723633 C16.68482838 14.43481207 18.45211064 16.19144808 20.22070312 17.94726562 C21.33918368 19.06706744 22.45704386 20.18748933 23.57421875 21.30859375 C24.10335373 21.83368027 24.63248871 22.35876678 25.17765808 22.89976501 C27.50707509 25.25930389 28.93615804 26.80847413 30 30 C28 30 28 30 25.4375 27.6875 C23 25 23 25 22 22 C21.34 22 20.68 22 20 22 C18.66015625 20.63671875 18.66015625 20.63671875 17.0625 18.6875 C13.91673088 14.9842528 10.61924083 11.49761908 7.1875 8.0625 C6.70740479 7.5780542 6.22730957 7.0936084 5.73266602 6.59448242 C3.11528876 3.96667347 3.11528876 3.96667347 0 2 C0 1.34 0 0.68 0 0 Z " fill="#175645" transform="translate(736,427)"/>
<path d="M0 0 C0.66 0.33 1.32 0.66 2 1 C1.27554688 1.89460937 0.55109375 2.78921875 -0.1953125 3.7109375 C-5.67103955 10.53690864 -10.79141405 17.29313796 -15 25 C-15.7109375 23.35546875 -15.7109375 23.35546875 -16 21 C-14.6015625 18.23828125 -14.6015625 18.23828125 -12.625 15.3125 C-11.97789062 14.33925781 -11.33078125 13.36601562 -10.6640625 12.36328125 C-9 10 -9 10 -8 9 C-8.66 8.34 -9.32 7.68 -10 7 C-8.9171875 6.6596875 -8.9171875 6.6596875 -7.8125 6.3125 C-4.46790687 4.75168987 -2.48396041 2.6968713 0 0 Z " fill="#205946" transform="translate(210,233)"/>
<path d="M0 0 C7.26 0 14.52 0 22 0 C22 0.66 22 1.32 22 2 C23.32 2.33 24.64 2.66 26 3 C17.09 3 8.18 3 -1 3 C-0.67 2.01 -0.34 1.02 0 0 Z " fill="#174F3E" transform="translate(426,194)"/>
<path d="M0 0 C3 1 3 1 4.97265625 4.421875 C5.67953009 5.8595845 6.37573794 7.3025757 7.0625 8.75 C7.5894043 9.82507813 7.5894043 9.82507813 8.12695312 10.921875 C13.29951877 21.56034649 13.29951877 21.56034649 13 28 C11.4157954 25.62369309 10.43134423 23.80166366 9.4140625 21.19921875 C9.12273438 20.46896484 8.83140625 19.73871094 8.53125 18.98632812 C7.93213158 17.46658162 7.33572842 15.9457616 6.7421875 14.42382812 C5.33731458 10.91472669 3.92410131 7.70191492 1.7734375 4.58203125 C0 2 0 2 0 0 Z " fill="#1E5744" transform="translate(826,251)"/>
<path d="M0 0 C-0.33 0.66 -0.66 1.32 -1 2 C-10.24 2 -19.48 2 -29 2 C-29 1.67 -29 1.34 -29 1 C-24.75509667 0.02738137 -20.52360891 -0.35373968 -16.1875 -0.625 C-15.47916016 -0.67003662 -14.77082031 -0.71507324 -14.04101562 -0.76147461 C-9.19148149 -1.02971586 -4.76323184 -0.89310597 0 0 Z " fill="#1F5944" transform="translate(618,444)"/>
<path d="M0 0 C-2.53054337 2.53054337 -3.43548882 2.25683229 -6.9375 2.265625 C-7.91460938 2.26820313 -8.89171875 2.27078125 -9.8984375 2.2734375 C-10.92195312 2.26570312 -11.94546875 2.25796875 -13 2.25 C-14.02351562 2.25773438 -15.04703125 2.26546875 -16.1015625 2.2734375 C-17.07867188 2.27085937 -18.05578125 2.26828125 -19.0625 2.265625 C-19.96097656 2.26336914 -20.85945312 2.26111328 -21.78515625 2.25878906 C-24 2 -24 2 -26 0 C-17.22612019 -0.70757095 -8.7521697 -1.36752652 0 0 Z " fill="#104334" transform="translate(666,195)"/>
<path d="M0 0 C0.33 0 0.66 0 1 0 C1 1.65 1 3.3 1 5 C1.66 5 2.32 5 3 5 C3.53010201 7.60259124 4.04937795 10.206557 4.5625 12.8125 C4.71396484 13.55048828 4.86542969 14.28847656 5.02148438 15.04882812 C6.11328125 20.66015625 6.11328125 20.66015625 5 24 C2.29845703 21.29845703 2.06109903 18.43552293 1.375 14.8125 C1.11460937 13.51957031 0.85421875 12.22664062 0.5859375 10.89453125 C0.02879634 7.19139965 -0.10664059 3.73726778 0 0 Z " fill="#245B46" transform="translate(179,726)"/>
<path d="M0 0 C-0.33 0.66 -0.66 1.32 -1 2 C-9.58 2 -18.16 2 -27 2 C-27 1.67 -27 1.34 -27 1 C-17.70505737 -0.5364591 -9.40345055 -1.29582 0 0 Z " fill="#0D4333" transform="translate(339,195)"/>
<path d="M0 0 C1.99954746 -0.04254356 4.00041636 -0.04080783 6 0 C6.33 0.33 6.66 0.66 7 1 C8.85287502 1.07226502 10.70833878 1.0838122 12.5625 1.0625 C13.57441406 1.05347656 14.58632813 1.04445312 15.62890625 1.03515625 C16.41136719 1.02355469 17.19382812 1.01195312 18 1 C18 1.66 18 2.32 18 3 C20.97 3 23.94 3 27 3 C27 3.33 27 3.66 27 4 C17.75845174 4.20871753 9.0599788 4.14982548 0 2 C0 1.34 0 0.68 0 0 Z " fill="#25634F" transform="translate(687,193)"/>
<path d="M0 0 C0.99 0 1.98 0 3 0 C3 0.99 3 1.98 3 3 C7.95 3 12.9 3 18 3 C18 3.33 18 3.66 18 4 C8.76 4 -0.48 4 -10 4 C-10 3.34 -10 2.68 -10 2 C-9.04287109 1.90912109 -9.04287109 1.90912109 -8.06640625 1.81640625 C-6.82697266 1.69072266 -6.82697266 1.69072266 -5.5625 1.5625 C-4.73878906 1.48128906 -3.91507812 1.40007812 -3.06640625 1.31640625 C-1.01337975 1.21069185 -1.01337975 1.21069185 0 0 Z " fill="#124C3B" transform="translate(498,193)"/>
<path d="M0 0 C0.66 0 1.32 0 2 0 C0.56623011 4.30130966 -2.61615517 5.23625005 -6.4375 7.1875 C-7.47874023 7.73954102 -7.47874023 7.73954102 -8.54101562 8.30273438 C-13.71035772 11 -13.71035772 11 -16 11 C-16 10.34 -16 9.68 -16 9 C-14.39318359 8.15115234 -14.39318359 8.15115234 -12.75390625 7.28515625 C-11.3567202 6.54436633 -9.95958753 5.80347571 -8.5625 5.0625 C-7.85544922 4.68931641 -7.14839844 4.31613281 -6.41992188 3.93164062 C-2.99521342 2.27507665 -2.99521342 2.27507665 0 0 Z " fill="#1F5844" transform="translate(789,815)"/>
<path d="M0 0 C1.30517578 0.14888672 1.30517578 0.14888672 2.63671875 0.30078125 C5.82694742 0.70627739 9.00816707 1.14118847 12.1875 1.625 C12.1875 1.955 12.1875 2.285 12.1875 2.625 C9.06257749 2.68291844 5.93779234 2.71856746 2.8125 2.75 C1.92304687 2.76675781 1.03359375 2.78351563 0.1171875 2.80078125 C-0.73359375 2.80722656 -1.584375 2.81367188 -2.4609375 2.8203125 C-3.63922119 2.83602295 -3.63922119 2.83602295 -4.84130859 2.85205078 C-6.8125 2.625 -6.8125 2.625 -8.8125 0.625 C-5.68394887 -0.33873759 -3.2415791 -0.37775882 0 0 Z " fill="#144C3B" transform="translate(685.8125,194.375)"/>
<path d="M0 0 C1.32 0.33 2.64 0.66 4 1 C4 1.66 4 2.32 4 3 C4.66 3.33 5.32 3.66 6 4 C0.72 4 -4.56 4 -10 4 C-10 3.34 -10 2.68 -10 2 C-2.25 0.875 -2.25 0.875 0 2 C0 1.34 0 0.68 0 0 Z " fill="#195240" transform="translate(567,193)"/>
<path d="M0 0 C0.99 0.495 0.99 0.495 2 1 C2.59765625 3.1796875 2.59765625 3.1796875 3.0625 5.875 C3.56270702 8.7108844 4.08689283 11.26067849 5 14 C7.01508358 14.73323796 7.01508358 14.73323796 9 15 C6.75 15.3125 6.75 15.3125 4 15 C1.6875 13.125 1.6875 13.125 0 10 C-0.32334339 6.63825525 -0.23525873 3.36550689 0 0 Z " fill="#175541" transform="translate(396,638)"/>
<path d="M0 0 C-5.46891833 4.65870821 -11.15867854 4.13414356 -18 4 C-18 3.34 -18 2.68 -18 2 C-15.93827387 1.66191314 -13.8755797 1.32972639 -11.8125 1 C-10.66394531 0.814375 -9.51539063 0.62875 -8.33203125 0.4375 C-5.49584607 0.06510523 -2.85280436 -0.08596021 0 0 Z " fill="#1A5340" transform="translate(755,831)"/>
<path d="M0 0 C0 0.66 0 1.32 0 2 C-13.6332574 2.18451025 -13.6332574 2.18451025 -20 1 C-20 0.67 -20 0.34 -20 0 C-13.09811029 -0.83854735 -6.88577812 -1.01593448 0 0 Z " fill="#0B3C2C" transform="translate(392,195)"/>
<path d="M0 0 C3.08693704 1.35852131 5.08641734 2.84510953 7.3125 5.375 C7.84488281 5.96023437 8.37726562 6.54546875 8.92578125 7.1484375 C10 9 10 9 9.66796875 11.2265625 C9.44753906 11.81179687 9.22710938 12.39703125 9 13 C8.51789062 12.36191406 8.03578125 11.72382813 7.5390625 11.06640625 C6.90742187 10.24011719 6.27578125 9.41382813 5.625 8.5625 C4.99851562 7.73878906 4.37203125 6.91507813 3.7265625 6.06640625 C2.16246096 3.91471908 2.16246096 3.91471908 0 3 C0 2.01 0 1.02 0 0 Z " fill="#1B5441" transform="translate(814,235)"/>
<path d="M0 0 C0.33 0 0.66 0 1 0 C1 10.23 1 20.46 1 31 C0.67 31 0.34 31 0 31 C0 20.77 0 10.54 0 0 Z " fill="#357760" transform="translate(176,329)"/>
<path d="M0 0 C0.66 0.33 1.32 0.66 2 1 C0.42617053 2.65492374 -1.15942902 4.29866024 -2.75 5.9375 C-3.63171875 6.85402344 -4.5134375 7.77054687 -5.421875 8.71484375 C-7.80176695 10.82429343 -8.9099375 11.66067071 -12 12 C-8.32167983 7.47384007 -4.58913637 3.60575001 0 0 Z " fill="#0C4F3F" transform="translate(466,439)"/>
<path d="M0 0 C0.66 0 1.32 0 2 0 C0.40109514 5.19644079 -1.74138003 10.06612142 -4 15 C-4.33 15 -4.66 15 -5 15 C-4.5188509 9.22621075 -2.81532819 5.04140164 0 0 Z " fill="#1B513F" transform="translate(191,259)"/>
<path d="M0 0 C-0.33 0.66 -0.66 1.32 -1 2 C-7.27 1.67 -13.54 1.34 -20 1 C-20 0.67 -20 0.34 -20 0 C-13.12631267 -0.74464946 -6.83079148 -1.18225237 0 0 Z " fill="#0B3B2D" transform="translate(548,195)"/>
<path d="M0 0 C0.33 0 0.66 0 1 0 C0.67 5.28 0.34 10.56 0 16 C-2.15942819 12.76085771 -2.27232978 11.75140267 -2.25 8 C-2.25515625 7.13375 -2.2603125 6.2675 -2.265625 5.375 C-2 3 -2 3 0 0 Z " fill="#2C6B56" transform="translate(399,626)"/>
<path d="M0 0 C-2.88415883 1.44207941 -5.41721528 1.09394887 -8.625 1.0625 C-9.81351562 1.05347656 -11.00203125 1.04445312 -12.2265625 1.03515625 C-13.14179688 1.02355469 -14.05703125 1.01195312 -15 1 C-15 0.34 -15 -0.32 -15 -1 C-13.25181409 -1.22304441 -11.50129677 -1.4278645 -9.75 -1.625 C-8.77546875 -1.74101562 -7.8009375 -1.85703125 -6.796875 -1.9765625 C-3.86570607 -2.00112537 -2.45471036 -1.5312717 0 0 Z " fill="#0D3F30" transform="translate(487,196)"/>
<path d="M0 0 C-1.59092052 4.13639336 -4.60474918 7.23213248 -8 10 C-8.66 10 -9.32 10 -10 10 C-8.50006099 6.10015857 -4.53875449 0 0 0 Z " fill="#1B5844" transform="translate(677,578)"/>
<path d="M0 0 C4 2.66666667 8 5.33333333 12 8 C11.34 8.66 10.68 9.32 10 10 C8.51437458 8.90453883 7.03668291 7.79831177 5.5625 6.6875 C4.73878906 6.07261719 3.91507813 5.45773437 3.06640625 4.82421875 C1 3 1 3 0 0 Z " fill="#194E3C" transform="translate(220,805)"/>
<path d="M0 0 C2.9555377 2.75170751 5.11563315 5.41970299 7 9 C7 9.66 7 10.32 7 11 C5.68 11.33 4.36 11.66 3 12 C2.814375 10.88625 2.814375 10.88625 2.625 9.75 C2.12244458 7.03427622 2.12244458 7.03427622 0.9375 4.875 C0 3 0 3 0 0 Z " fill="#1E5743" transform="translate(193,771)"/>
<path d="M0 0 C-2.35438733 1.42944945 -3.48032433 2.08661261 -6.25 1.625 C-6.8275 1.41875 -7.405 1.2125 -8 1 C-8 1.66 -8 2.32 -8 3 C-10.97 3 -13.94 3 -17 3 C-13.92528034 1.46264017 -11.75292863 0.55332108 -8.5 -0.1875 C-7.7471875 -0.36667969 -6.994375 -0.54585937 -6.21875 -0.73046875 C-3.85166621 -1.01801942 -2.25455985 -0.72248395 0 0 Z " fill="#31725B" transform="translate(554,549)"/>
<path d="M0 0 C7.48291572 6.15034169 7.48291572 6.15034169 10 10 C6.7451198 9.41978222 5.06347592 8.47352859 2.75 6.125 C2.22921875 5.61195313 1.7084375 5.09890625 1.171875 4.5703125 C0 3 0 3 0 0 Z " fill="#1F5944" transform="translate(657,396)"/>
<path d="M0 0 C0.99 0 1.98 0 3 0 C5.03993514 4.92984325 6.40652968 8.57960425 6 14 C4.06061181 11.09091772 3.03225043 8.59137621 1.875 5.3125 C1.52179687 4.31863281 1.16859375 3.32476562 0.8046875 2.30078125 C0.53914062 1.54152344 0.27359375 0.78226562 0 0 Z " fill="#19503E" transform="translate(833,265)"/>
<path d="M0 0 C0.66 0.33 1.32 0.66 2 1 C0.35 3.64 -1.3 6.28 -3 9 C-4.32 8.67 -5.64 8.34 -7 8 C-7 7.34 -7 6.68 -7 6 C-5.46875 4.4921875 -5.46875 4.4921875 -3.5 2.875 C-2.8503125 2.33617187 -2.200625 1.79734375 -1.53125 1.2421875 C-1.0259375 0.83226562 -0.520625 0.42234375 0 0 Z " fill="#296854" transform="translate(216,226)"/>
<path d="M0 0 C0.66 0.66 1.32 1.32 2 2 C4.32275177 2.40047444 6.65739357 2.7397104 9 3 C9 3.33 9 3.66 9 4 C4.05 4 -0.9 4 -6 4 C-5.67 3.01 -5.34 2.02 -5 1 C-3.35 1.33 -1.7 1.66 0 2 C0 1.34 0 0.68 0 0 Z " fill="#175240" transform="translate(370,193)"/>
<path d="M0 0 C2.44821444 1.91599391 2.99324823 2.97243029 3.75 6.0625 C4 9 4 9 3 11 C1.68 9.68 0.36 8.36 -1 7 C-0.34 6.67 0.32 6.34 1 6 C1 5.34 1 4.68 1 4 C0.34 3.67 -0.32 3.34 -1 3 C-0.67 2.01 -0.34 1.02 0 0 Z M1 7 C2 9 2 9 2 9 Z " fill="#28634E" transform="translate(187,758)"/>
<path d="M0 0 C1.21236328 0.01353516 1.21236328 0.01353516 2.44921875 0.02734375 C3.37154297 0.04474609 3.37154297 0.04474609 4.3125 0.0625 C1.16676323 2.15965785 -0.70206251 2.58254559 -4.375 3.1875 C-5.86580078 3.43886719 -5.86580078 3.43886719 -7.38671875 3.6953125 C-8.14597656 3.81648437 -8.90523438 3.93765625 -9.6875 4.0625 C-9.0275 3.7325 -8.3675 3.4025 -7.6875 3.0625 C-7.6875 2.4025 -7.6875 1.7425 -7.6875 1.0625 C-4.80538698 0.10179566 -2.98899956 -0.04331883 0 0 Z " fill="#1A5340" transform="translate(269.6875,197.9375)"/>
<path d="M0 0 C3.39192363 0.59283621 5.2107757 1.76743189 7.75 4.0625 C8.67039062 4.88427734 8.67039062 4.88427734 9.609375 5.72265625 C10.29773438 6.35494141 10.29773438 6.35494141 11 7 C10.67 7.66 10.34 8.32 10 9 C8.33043913 7.69118353 6.66441696 6.37785174 5 5.0625 C4.071875 4.33160156 3.14375 3.60070312 2.1875 2.84765625 C1.465625 2.23792969 0.74375 1.62820312 0 1 C0 0.67 0 0.34 0 0 Z " fill="#194F3C" transform="translate(794,217)"/>
<path d="M0 0 C0 2.83967231 -0.40267181 5.23735711 -1 8 C-2.65 8.33 -4.3 8.66 -6 9 C-4.47291037 5.56404834 -2.40072955 2.88087546 0 0 Z " fill="#246650" transform="translate(427,622)"/>
<path d="M0 0 C-0.66 0 -1.32 0 -2 0 C-2 0.66 -2 1.32 -2 2 C-5.21451269 3.60725635 -8.43612536 3.05748185 -12 3 C-7.97869817 0.31913211 -4.73968522 -1.57989507 0 0 Z " fill="#2A6A54" transform="translate(536,553)"/>
<path d="M0 0 C2.97 0 5.94 0 9 0 C9 0.99 9 1.98 9 3 C6.03 3 3.06 3 0 3 C0 2.01 0 1.02 0 0 Z " fill="#1A5442" transform="translate(295,194)"/>
<path d="M0 0 C0.99 0.33 1.98 0.66 3 1 C3.99 1 4.98 1 6 1 C3.44931155 3.35448165 2.28982642 3.98327924 -1.25 4.1875 C-2.1575 4.125625 -3.065 4.06375 -4 4 C-2.68 2.68 -1.36 1.36 0 0 Z " fill="#246854" transform="translate(476,578)"/>
<path d="M0 0 C4.2742558 1.5830577 6.26531794 4.50568404 9 8 C8.01 8.495 8.01 8.495 7 9 C7 8.34 7 7.68 7 7 C6.401875 6.731875 5.80375 6.46375 5.1875 6.1875 C3.00152146 5.00082594 1.58667406 3.90400887 0 2 C0 1.34 0 0.68 0 0 Z " fill="#145543" transform="translate(786,477)"/>
<path d="M0 0 C0.33 0.66 0.66 1.32 1 2 C0.22265625 3.9453125 0.22265625 3.9453125 -0.9375 6.125 C-1.31777344 6.84945312 -1.69804687 7.57390625 -2.08984375 8.3203125 C-2.39019531 8.87460937 -2.69054687 9.42890625 -3 10 C-3.33 10 -3.66 10 -4 10 C-3.38461538 3.47692308 -3.38461538 3.47692308 -1.4375 1.0625 C-0.7259375 0.5365625 -0.7259375 0.5365625 0 0 Z " fill="#276650" transform="translate(419,566)"/>
<path d="M0 0 C0.33 0 0.66 0 1 0 C1 6.27 1 12.54 1 19 C0.67 19 0.34 19 0 19 C0 12.73 0 6.46 0 0 Z " fill="#347660" transform="translate(176,538)"/>
<path d="M0 0 C0.33 0.99 0.66 1.98 1 3 C-0.8125 6.1875 -0.8125 6.1875 -3 9 C-3.66 9 -4.32 9 -5 9 C-3.7508258 5.54074837 -2.32472205 2.85306797 0 0 Z " fill="#1C5844" transform="translate(434,539)"/>
<path d="M0 0 C0.66 0 1.32 0 2 0 C0.60667426 3.36720387 -0.9789286 4.9859524 -4 7 C-4.66 6.67 -5.32 6.34 -6 6 C-4 4 -2 2 0 0 Z " fill="#18513F" transform="translate(230,215)"/>
<path d="M0 0 C3.68754757 0.49831724 5.60490662 1.10067643 8 4 C7.01 4.495 7.01 4.495 6 5 C3.96855359 4.06553465 1.96466413 3.06775224 0 2 C0 1.34 0 0.68 0 0 Z " fill="#1A5442" transform="translate(778,207)"/>
<path d="M0 0 C-0.66 0 -1.32 0 -2 0 C-2.33 0.66 -2.66 1.32 -3 2 C-3.66 1.67 -4.32 1.34 -5 1 C-5 1.99 -5 2.98 -5 4 C-6.65 3.67 -8.3 3.34 -10 3 C-4.37755102 -1.45918367 -4.37755102 -1.45918367 0 0 Z " fill="#2F6E58" transform="translate(262,201)"/>
<path d="M0 0 C3.77545388 1.09068668 6.47043472 1.9083091 9 5 C3.46153846 4.50769231 3.46153846 4.50769231 1.125 1.9375 C0.75375 1.298125 0.3825 0.65875 0 0 Z " fill="#194F3D" transform="translate(232,815)"/>
<path d="M0 0 C0.33 0 0.66 0 1 0 C1.33 4.29 1.66 8.58 2 13 C-1 10 -1 10 -1.07421875 7.51953125 C-0.94660156 6.62621094 -0.81898438 5.73289062 -0.6875 4.8125 C-0.56761719 3.91144531 -0.44773437 3.01039063 -0.32421875 2.08203125 C-0.21722656 1.39496094 -0.11023438 0.70789063 0 0 Z " fill="#367861" transform="translate(640,587)"/>
<path d="M0 0 C0.66 0.33 1.32 0.66 2 1 C0.02 3.31 -1.96 5.62 -4 8 C-4.33 7.01 -4.66 6.02 -5 5 C-3.35 3.35 -1.7 1.7 0 0 Z " fill="#164C3A" transform="translate(210,233)"/>
<path d="M0 0 C1.98 0 3.96 0 6 0 C6 0.99 6 1.98 6 3 C3.69 3 1.38 3 -1 3 C-0.67 2.01 -0.34 1.02 0 0 Z " fill="#185241" transform="translate(426,194)"/>
<path d="M0 0 C1.98 0 3.96 0 6 0 C5.67 0.66 5.34 1.32 5 2 C2.9375 2.625 2.9375 2.625 1 3 C0.67 2.01 0.34 1.02 0 0 Z " fill="#367A63" transform="translate(407,837)"/>
<path d="M0 0 C0.33 0 0.66 0 1 0 C1 2.97 1 5.94 1 9 C0.67 9 0.34 9 0 9 C0 6.03 0 3.06 0 0 Z " fill="#357660" transform="translate(176,402)"/>
<path d="M0 0 C1.65 0 3.3 0 5 0 C5.33 0.66 5.66 1.32 6 2 C3.03 1.505 3.03 1.505 0 1 C0 0.67 0 0.34 0 0 Z " fill="#367862" transform="translate(591,837)"/>
<path d="M0 0 C2.475 0.495 2.475 0.495 5 1 C4.01 1.66 3.02 2.32 2 3 C1.34 2.01 0.68 1.02 0 0 Z " fill="#367962" transform="translate(704,837)"/>
<path d="M0 0 C0 0.99 0 1.98 0 3 C-0.99 3.33 -1.98 3.66 -3 4 C-3 3.34 -3 2.68 -3 2 C-2.01 1.34 -1.02 0.68 0 0 Z " fill="#34725D" transform="translate(195,779)"/>
<path d="M0 0 C0.33 0 0.66 0 1 0 C1 2.31 1 4.62 1 7 C0.67 7 0.34 7 0 7 C0 4.69 0 2.38 0 0 Z " fill="#347660" transform="translate(176,385)"/>
<path d="M0 0 C0.33 0 0.66 0 1 0 C1 2.31 1 4.62 1 7 C0.67 7 0.34 7 0 7 C0 4.69 0 2.38 0 0 Z " fill="#367761" transform="translate(176,368)"/>
<path d="M0 0 C0.33 0 0.66 0 1 0 C1 1.98 1 3.96 1 6 C0.67 6 0.34 6 0 6 C0 4.02 0 2.04 0 0 Z " fill="#347660" transform="translate(176,361)"/>
<path d="M0 0 C1.98 0.99 1.98 0.99 4 2 C2.68 2 1.36 2 0 2 C0 1.34 0 0.68 0 0 Z " fill="#367862" transform="translate(665,837)"/>
<path d="M0 0 C1.65 0 3.3 0 5 0 C5 0.33 5 0.66 5 1 C3.35 1 1.7 1 0 1 C0 0.67 0 0.34 0 0 Z " fill="#377862" transform="translate(567,837)"/>
<path d="M0 0 C1.32 0 2.64 0 4 0 C3.67 0.66 3.34 1.32 3 2 C2.01 1.34 1.02 0.68 0 0 Z " fill="#367862" transform="translate(480,837)"/>
<path d="M0 0 C1.32 0 2.64 0 4 0 C3.67 0.66 3.34 1.32 3 2 C2.01 1.34 1.02 0.68 0 0 Z " fill="#377961" transform="translate(400,837)"/>
<path d="M0 0 C1.32 0 2.64 0 4 0 C3.67 0.66 3.34 1.32 3 2 C2.01 1.34 1.02 0.68 0 0 Z " fill="#367861" transform="translate(392,837)"/>
<path d="M0 0 C0.66 0.33 1.32 0.66 2 1 C1.34 1.66 0.68 2.32 0 3 C0 2.01 0 1.02 0 0 Z " fill="#377A64" transform="translate(368,837)"/>
<path d="M0 0 C1.98 0.99 1.98 0.99 4 2 C2.68 1.67 1.36 1.34 0 1 C0 0.67 0 0.34 0 0 Z " fill="#36745E" transform="translate(249,827)"/>
<path d="M0 0 C0.66 0.33 1.32 0.66 2 1 C1.01 1.66 0.02 2.32 -1 3 C-0.67 2.01 -0.34 1.02 0 0 Z " fill="#3B7F67" transform="translate(436,541)"/>
<path d="M0 0 C0.99 0.495 0.99 0.495 2 1 C1.67 1.66 1.34 2.32 1 3 C0.67 2.01 0.34 1.02 0 0 Z " fill="#367761" transform="translate(474,837)"/>
<path d="M0 0 C0.66 0.66 1.32 1.32 2 2 C1.01 1.67 0.02 1.34 -1 1 C-0.67 0.67 -0.34 0.34 0 0 Z " fill="#377963" transform="translate(323,837)"/>
<path d="M0 0 C0.99 0.33 1.98 0.66 3 1 C2.01 1 1.02 1 0 1 C0 0.67 0 0.34 0 0 Z " fill="#367861" transform="translate(601,837)"/>
<path d="M0 0 C4 1 4 1 4 1 Z " fill="#377761" transform="translate(551,837)"/>
<path d="M0 0 C0 3 0 3 0 3 Z " fill="#367961" transform="translate(337,837)"/>
<path d="M0 0 C1 4 1 4 1 4 Z " fill="#357661" transform="translate(178,736)"/>
<path d="M0 0 C1 4 1 4 1 4 Z " fill="#387961" transform="translate(177,729)"/>
<path d="M0 0 C0.66 0.33 1.32 0.66 2 1 C1.01 1 0.02 1 -1 1 C-0.67 0.67 -0.34 0.34 0 0 Z " fill="#387C65" transform="translate(749,494)"/>
<path d="M0 0 C1 4 1 4 1 4 Z " fill="#357762" transform="translate(176,393)"/>
<path d="M0 0 C0.99 0.33 1.98 0.66 3 1 C2.01 1.33 1.02 1.66 0 2 C0 1.34 0 0.68 0 0 Z " fill="#387661" transform="translate(224,216)"/>
<path d="M0 0 C3 1 3 1 3 1 Z " fill="#357963" transform="translate(691,838)"/>
<path d="" fill="#377861" transform="translate(0,0)"/>
<path d="M0 0 C0.66 0.66 1.32 1.32 2 2 C1.34 2 0.68 2 0 2 C0 1.34 0 0.68 0 0 Z " fill="#377862" transform="translate(507,837)"/>
<path d="M0 0 C3 1 3 1 3 1 Z " fill="#347660" transform="translate(735,837)"/>
<path d="M0 0 C0.99 0.495 0.99 0.495 2 1 C1.01 1.495 1.01 1.495 0 2 C0 1.34 0 0.68 0 0 Z " fill="#387863" transform="translate(504,837)"/>
<path d="M0 0 C0.33 0.66 0.66 1.32 1 2 C0.34 1.67 -0.32 1.34 -1 1 C-0.67 0.67 -0.34 0.34 0 0 Z " fill="#377A62" transform="translate(371,837)"/>
<path d="M0 0 C0.66 0 1.32 0 2 0 C1.67 0.66 1.34 1.32 1 2 C0.67 1.34 0.34 0.68 0 0 Z " fill="#387A62" transform="translate(355,837)"/>
<path d="M0 0 C3 1 3 1 3 1 Z " fill="#377863" transform="translate(311,837)"/>
<path d="M0 0 C3 1 3 1 3 1 Z " fill="#387863" transform="translate(288,837)"/>
<path d="M0 0 C0.66 0.66 1.32 1.32 2 2 C1.34 2 0.68 2 0 2 C0 1.34 0 0.68 0 0 Z " fill="#33735D" transform="translate(192,778)"/>
<path d="" fill="#357560" transform="translate(0,0)"/>
<path d="M0 0 C3 1 3 1 3 1 Z " fill="#397E67" transform="translate(488,568)"/>
<path d="M0 0 C0.66 0.66 1.32 1.32 2 2 C1.34 2 0.68 2 0 2 C0 1.34 0 0.68 0 0 Z " fill="#3A7E67" transform="translate(503,560)"/>
<path d="M0 0 C3 1 3 1 3 1 Z " fill="#3C8169" transform="translate(559,544)"/>
<path d="M0 0 C3 1 3 1 3 1 Z " fill="#357A63" transform="translate(627,446)"/>
<path d="M0 0 C0.99 0.495 0.99 0.495 2 1 C1.01 1.495 1.01 1.495 0 2 C0 1.34 0 0.68 0 0 Z " fill="#387D66" transform="translate(690,434)"/>
<path d="" fill="#367861" transform="translate(0,0)"/>
<path d="M0 0 C0.66 0 1.32 0 2 0 C1.67 0.66 1.34 1.32 1 2 C0.67 1.34 0.34 0.68 0 0 Z " fill="#32745E" transform="translate(176,300)"/>
<path d="M0 0 C0.99 0.495 0.99 0.495 2 1 C1.01 1.495 1.01 1.495 0 2 C0 1.34 0 0.68 0 0 Z " fill="#33745F" transform="translate(215,224)"/>
<path d="M0 0 C3 1 3 1 3 1 Z " fill="#377962" transform="translate(738,193)"/>
<path d="M0 0 C0.33 0.66 0.66 1.32 1 2 C0.34 1.67 -0.32 1.34 -1 1 C-0.67 0.67 -0.34 0.34 0 0 Z " fill="#387962" transform="translate(288,192)"/>
<path d="M0 0 C0.66 0 1.32 0 2 0 C1.67 0.66 1.34 1.32 1 2 C0.67 1.34 0.34 0.68 0 0 Z " fill="#377B64" transform="translate(374,192)"/>
<path d="M0 0 C0.66 0 1.32 0 2 0 C1.67 0.66 1.34 1.32 1 2 C0.67 1.34 0.34 0.68 0 0 Z " fill="#387C64" transform="translate(342,192)"/>
<path d="" fill="#347962" transform="translate(0,0)"/>
<path d="" fill="#357862" transform="translate(0,0)"/>
<path d="" fill="#367A62" transform="translate(0,0)"/>
<path d="" fill="#347861" transform="translate(0,0)"/>
<path d="M0 0 C2 1 2 1 2 1 Z " fill="#367962" transform="translate(659,838)"/>
<path d="M0 0 C2 1 2 1 2 1 Z " fill="#367862" transform="translate(651,838)"/>
<path d="M0 0 C2 1 2 1 2 1 Z " fill="#367760" transform="translate(648,838)"/>
<path d="" fill="#377961" transform="translate(0,0)"/>
<path d="M0 0 C2 1 2 1 2 1 Z " fill="#357762" transform="translate(618,838)"/>
<path d="M0 0 C2 1 2 1 2 1 Z " fill="#377962" transform="translate(614,838)"/>
<path d="M0 0 C2 1 2 1 2 1 Z " fill="#357A63" transform="translate(565,838)"/>
<path d="M0 0 C2 1 2 1 2 1 Z " fill="#367861" transform="translate(515,838)"/>
<path d="M0 0 C2 1 2 1 2 1 Z " fill="#357963" transform="translate(490,838)"/>
<path d="M0 0 C2 1 2 1 2 1 Z " fill="#377A63" transform="translate(375,838)"/>
<path d="M0 0 C2 1 2 1 2 1 Z " fill="#367963" transform="translate(347,838)"/>
<path d="M0 0 C2 1 2 1 2 1 Z " fill="#377963" transform="translate(315,838)"/>
<path d="M0 0 C2 1 2 1 2 1 Z " fill="#397A63" transform="translate(656,837)"/>
<path d="M0 0 C2 1 2 1 2 1 Z " fill="#377761" transform="translate(536,837)"/>
<path d="M0 0 C2 1 2 1 2 1 Z " fill="#367661" transform="translate(498,837)"/>
<path d="M0 0 C2 1 2 1 2 1 Z " fill="#367863" transform="translate(463,837)"/>
<path d="M0 0 C2 1 2 1 2 1 Z " fill="#377860" transform="translate(387,837)"/>
<path d="M0 0 C2 1 2 1 2 1 Z " fill="#387A63" transform="translate(360,837)"/>
<path d="M0 0 C2 1 2 1 2 1 Z " fill="#387A64" transform="translate(343,837)"/>
<path d="" fill="#38765F" transform="translate(0,0)"/>
<path d="M0 0 C2 1 2 1 2 1 Z " fill="#387861" transform="translate(272,835)"/>
<path d="M0 0 C2 1 2 1 2 1 Z " fill="#3A7A65" transform="translate(764,831)"/>
<path d="M0 0 C2 1 2 1 2 1 Z " fill="#3A7B64" transform="translate(256,831)"/>
<path d="M0 0 C2 1 2 1 2 1 Z " fill="#36745D" transform="translate(236,822)"/>
<path d="M0 0 C2 1 2 1 2 1 Z " fill="#34735E" transform="translate(235,820)"/>
<path d="" fill="#34745D" transform="translate(0,0)"/>
<path d="" fill="#35755F" transform="translate(0,0)"/>
<path d="M0 0 C2 1 2 1 2 1 Z " fill="#37755F" transform="translate(192,776)"/>
<path d="" fill="#34745F" transform="translate(0,0)"/>
<path d="" fill="#35735B" transform="translate(0,0)"/>
<path d="" fill="#387B64" transform="translate(0,0)"/>
<path d="" fill="#387E64" transform="translate(0,0)"/>
<path d="M0 0 C2 1 2 1 2 1 Z " fill="#377D63" transform="translate(400,648)"/>
<path d="" fill="#387D65" transform="translate(0,0)"/>
<path d="" fill="#378168" transform="translate(0,0)"/>
<path d="" fill="#3C8168" transform="translate(0,0)"/>
<path d="M0 0 C2 1 2 1 2 1 Z " fill="#3C8268" transform="translate(485,568)"/>
<path d="M0 0 C2 1 2 1 2 1 Z " fill="#3B7F68" transform="translate(496,562)"/>
<path d="" fill="#3C8168" transform="translate(0,0)"/>
<path d="M0 0 C2 1 2 1 2 1 Z " fill="#3B7F68" transform="translate(563,544)"/>
<path d="" fill="#397C65" transform="translate(0,0)"/>
<path d="M0 0 C2 1 2 1 2 1 Z " fill="#347A63" transform="translate(846,475)"/>
<path d="" fill="#397D66" transform="translate(0,0)"/>
<path d="M0 0 C2 1 2 1 2 1 Z " fill="#397D66" transform="translate(720,466)"/>
<path d="M0 0 C2 1 2 1 2 1 Z " fill="#357D64" transform="translate(634,447)"/>
<path d="M0 0 C2 1 2 1 2 1 Z " fill="#3A7E69" transform="translate(605,447)"/>
<path d="M0 0 C2 1 2 1 2 1 Z " fill="#387D67" transform="translate(697,443)"/>
<path d="M0 0 C2 1 2 1 2 1 Z " fill="#367C62" transform="translate(673,419)"/>
<path d="" fill="#377B63" transform="translate(0,0)"/>
<path d="M0 0 C2 1 2 1 2 1 Z " fill="#397761" transform="translate(177,288)"/>
<path d="" fill="#377761" transform="translate(0,0)"/>
<path d="M0 0 C2 1 2 1 2 1 Z " fill="#35755C" transform="translate(842,281)"/>
<path d="" fill="#397560" transform="translate(0,0)"/>
<path d="" fill="#367660" transform="translate(0,0)"/>
<path d="M0 0 C2 1 2 1 2 1 Z " fill="#367661" transform="translate(254,200)"/>
<path d="M0 0 C2 1 2 1 2 1 Z " fill="#337760" transform="translate(248,200)"/>
<path d="" fill="#377661" transform="translate(0,0)"/>
<path d="M0 0 C2 1 2 1 2 1 Z " fill="#34735C" transform="translate(755,196)"/>
<path d="" fill="#397763" transform="translate(0,0)"/>
<path d="" fill="#377560" transform="translate(0,0)"/>
<path d="M0 0 C2 1 2 1 2 1 Z " fill="#397962" transform="translate(743,193)"/>
<path d="" fill="#3A7F65" transform="translate(0,0)"/>
<path d="" fill="#397B63" transform="translate(0,0)"/>
<path d="M0 0 C2 1 2 1 2 1 Z " fill="#377961" transform="translate(512,192)"/>
<path d="M0 0 C2 1 2 1 2 1 Z " fill="#387D65" transform="translate(509,192)"/>
<path d="M0 0 C2 1 2 1 2 1 Z " fill="#3A7B63" transform="translate(424,192)"/>
<path d="M0 0 C2 1 2 1 2 1 Z " fill="#367A64" transform="translate(406,192)"/>
<path d="M0 0 C2 1 2 1 2 1 Z " fill="#377B63" transform="translate(392,192)"/>
<path d="" fill="#367A61" transform="translate(0,0)"/>
<path d="" fill="#377963" transform="translate(0,0)"/>
<path d="" fill="#357963" transform="translate(0,0)"/>
<path d="" fill="#347962" transform="translate(0,0)"/>
<path d="" fill="#347761" transform="translate(0,0)"/>
<path d="" fill="#377A65" transform="translate(0,0)"/>
<path d="" fill="#357763" transform="translate(0,0)"/>
<path d="" fill="#337660" transform="translate(0,0)"/>
<path d="" fill="#367A62" transform="translate(0,0)"/>
<path d="" fill="#357A61" transform="translate(0,0)"/>
<path d="" fill="#347660" transform="translate(0,0)"/>
<path d="" fill="#367C64" transform="translate(0,0)"/>
<path d="" fill="#357861" transform="translate(0,0)"/>
<path d="" fill="#347A62" transform="translate(0,0)"/>
<path d="" fill="#367762" transform="translate(0,0)"/>
<path d="" fill="#367964" transform="translate(0,0)"/>
<path d="" fill="#357B61" transform="translate(0,0)"/>
<path d="" fill="#387A63" transform="translate(0,0)"/>
<path d="" fill="#347863" transform="translate(0,0)"/>
<path d="" fill="#337962" transform="translate(0,0)"/>
<path d="" fill="#367963" transform="translate(0,0)"/>
<path d="" fill="#357A64" transform="translate(0,0)"/>
<path d="" fill="#327560" transform="translate(0,0)"/>
<path d="" fill="#377A61" transform="translate(0,0)"/>
<path d="" fill="#367863" transform="translate(0,0)"/>
<path d="" fill="#34765F" transform="translate(0,0)"/>
<path d="" fill="#357964" transform="translate(0,0)"/>
<path d="" fill="#397963" transform="translate(0,0)"/>
<path d="" fill="#347862" transform="translate(0,0)"/>
<path d="" fill="#357962" transform="translate(0,0)"/>
<path d="" fill="#357662" transform="translate(0,0)"/>
<path d="" fill="#387A63" transform="translate(0,0)"/>
<path d="" fill="#367962" transform="translate(0,0)"/>
<path d="" fill="#367860" transform="translate(0,0)"/>
<path d="" fill="#347861" transform="translate(0,0)"/>
<path d="" fill="#377763" transform="translate(0,0)"/>
<path d="" fill="#387A64" transform="translate(0,0)"/>
<path d="" fill="#397963" transform="translate(0,0)"/>
<path d="" fill="#397965" transform="translate(0,0)"/>
<path d="" fill="#377663" transform="translate(0,0)"/>
<path d="" fill="#367763" transform="translate(0,0)"/>
<path d="" fill="#3A7A63" transform="translate(0,0)"/>
<path d="" fill="#367862" transform="translate(0,0)"/>
<path d="" fill="#357763" transform="translate(0,0)"/>
<path d="" fill="#357962" transform="translate(0,0)"/>
<path d="" fill="#377A62" transform="translate(0,0)"/>
<path d="" fill="#357962" transform="translate(0,0)"/>
<path d="" fill="#367962" transform="translate(0,0)"/>
<path d="" fill="#377C66" transform="translate(0,0)"/>
<path d="" fill="#367963" transform="translate(0,0)"/>
<path d="" fill="#357B63" transform="translate(0,0)"/>
<path d="" fill="#377B66" transform="translate(0,0)"/>
<path d="" fill="#347862" transform="translate(0,0)"/>
<path d="" fill="#357864" transform="translate(0,0)"/>
<path d="" fill="#367963" transform="translate(0,0)"/>
<path d="" fill="#367862" transform="translate(0,0)"/>
<path d="" fill="#377964" transform="translate(0,0)"/>
<path d="" fill="#377A64" transform="translate(0,0)"/>
<path d="" fill="#347862" transform="translate(0,0)"/>
<path d="" fill="#357B61" transform="translate(0,0)"/>
<path d="" fill="#367861" transform="translate(0,0)"/>
<path d="" fill="#357862" transform="translate(0,0)"/>
<path d="" fill="#367B63" transform="translate(0,0)"/>
<path d="" fill="#387E64" transform="translate(0,0)"/>
<path d="" fill="#377B66" transform="translate(0,0)"/>
<path d="" fill="#37775F" transform="translate(0,0)"/>
<path d="" fill="#377662" transform="translate(0,0)"/>
<path d="" fill="#357861" transform="translate(0,0)"/>
<path d="" fill="#377A63" transform="translate(0,0)"/>
<path d="" fill="#387963" transform="translate(0,0)"/>
<path d="" fill="#377761" transform="translate(0,0)"/>
<path d="" fill="#357761" transform="translate(0,0)"/>
<path d="" fill="#387960" transform="translate(0,0)"/>
<path d="" fill="#397864" transform="translate(0,0)"/>
<path d="" fill="#367A60" transform="translate(0,0)"/>
<path d="" fill="#367862" transform="translate(0,0)"/>
<path d="" fill="#35785F" transform="translate(0,0)"/>
<path d="" fill="#387962" transform="translate(0,0)"/>
<path d="" fill="#387864" transform="translate(0,0)"/>
<path d="" fill="#377962" transform="translate(0,0)"/>
<path d="" fill="#377A63" transform="translate(0,0)"/>
<path d="" fill="#377764" transform="translate(0,0)"/>
<path d="" fill="#397963" transform="translate(0,0)"/>
<path d="" fill="#387A64" transform="translate(0,0)"/>
<path d="" fill="#3A7A63" transform="translate(0,0)"/>
<path d="" fill="#3A7B64" transform="translate(0,0)"/>
<path d="" fill="#387861" transform="translate(0,0)"/>
<path d="" fill="#367862" transform="translate(0,0)"/>
<path d="" fill="#397B64" transform="translate(0,0)"/>
<path d="" fill="#357661" transform="translate(0,0)"/>
<path d="" fill="#3A7B63" transform="translate(0,0)"/>
<path d="" fill="#377862" transform="translate(0,0)"/>
<path d="" fill="#377B62" transform="translate(0,0)"/>
<path d="" fill="#3A7B62" transform="translate(0,0)"/>
<path d="" fill="#377B63" transform="translate(0,0)"/>
<path d="" fill="#387962" transform="translate(0,0)"/>
<path d="" fill="#377A61" transform="translate(0,0)"/>
<path d="" fill="#377C61" transform="translate(0,0)"/>
<path d="" fill="#377964" transform="translate(0,0)"/>
<path d="" fill="#387D62" transform="translate(0,0)"/>
<path d="" fill="#387A62" transform="translate(0,0)"/>
<path d="" fill="#387863" transform="translate(0,0)"/>
<path d="" fill="#387A62" transform="translate(0,0)"/>
<path d="" fill="#397A61" transform="translate(0,0)"/>
<path d="" fill="#367962" transform="translate(0,0)"/>
<path d="" fill="#387B64" transform="translate(0,0)"/>
<path d="" fill="#367A64" transform="translate(0,0)"/>
<path d="" fill="#397761" transform="translate(0,0)"/>
<path d="" fill="#3A7B63" transform="translate(0,0)"/>
<path d="" fill="#38765F" transform="translate(0,0)"/>
<path d="" fill="#37745D" transform="translate(0,0)"/>
<path d="" fill="#36735D" transform="translate(0,0)"/>
<path d="" fill="#35765E" transform="translate(0,0)"/>
<path d="" fill="#36745F" transform="translate(0,0)"/>
<path d="" fill="#387861" transform="translate(0,0)"/>
<path d="" fill="#3B7A66" transform="translate(0,0)"/>
<path d="" fill="#367760" transform="translate(0,0)"/>
<path d="" fill="#31715B" transform="translate(0,0)"/>
<path d="" fill="#34745D" transform="translate(0,0)"/>
<path d="" fill="#387660" transform="translate(0,0)"/>
<path d="" fill="#33745E" transform="translate(0,0)"/>
<path d="" fill="#35745E" transform="translate(0,0)"/>
<path d="" fill="#33745B" transform="translate(0,0)"/>
<path d="" fill="#357059" transform="translate(0,0)"/>
<path d="" fill="#32735E" transform="translate(0,0)"/>
<path d="" fill="#347260" transform="translate(0,0)"/>
<path d="" fill="#377762" transform="translate(0,0)"/>
<path d="" fill="#346F5A" transform="translate(0,0)"/>
<path d="" fill="#3A7A61" transform="translate(0,0)"/>
<path d="" fill="#397760" transform="translate(0,0)"/>
<path d="" fill="#35755D" transform="translate(0,0)"/>
<path d="" fill="#34735E" transform="translate(0,0)"/>
<path d="" fill="#35725C" transform="translate(0,0)"/>
<path d="" fill="#3B7D65" transform="translate(0,0)"/>
<path d="" fill="#38725F" transform="translate(0,0)"/>
<path d="" fill="#387560" transform="translate(0,0)"/>
<path d="" fill="#377661" transform="translate(0,0)"/>
<path d="" fill="#387B66" transform="translate(0,0)"/>
<path d="" fill="#38755F" transform="translate(0,0)"/>
<path d="" fill="#36735E" transform="translate(0,0)"/>
<path d="" fill="#39745E" transform="translate(0,0)"/>
<path d="" fill="#37735F" transform="translate(0,0)"/>
<path d="" fill="#37735E" transform="translate(0,0)"/>
<path d="" fill="#34755D" transform="translate(0,0)"/>
<path d="" fill="#39735F" transform="translate(0,0)"/>
<path d="" fill="#35755F" transform="translate(0,0)"/>
<path d="" fill="#347660" transform="translate(0,0)"/>
<path d="" fill="#34755D" transform="translate(0,0)"/>
<path d="" fill="#36715D" transform="translate(0,0)"/>
<path d="" fill="#397A63" transform="translate(0,0)"/>
<path d="" fill="#31725F" transform="translate(0,0)"/>
<path d="" fill="#357460" transform="translate(0,0)"/>
<path d="" fill="#34705D" transform="translate(0,0)"/>
<path d="" fill="#36775D" transform="translate(0,0)"/>
<path d="" fill="#34735D" transform="translate(0,0)"/>
<path d="" fill="#347560" transform="translate(0,0)"/>
<path d="" fill="#346F5A" transform="translate(0,0)"/>
<path d="" fill="#367660" transform="translate(0,0)"/>
<path d="" fill="#367860" transform="translate(0,0)"/>
<path d="" fill="#347860" transform="translate(0,0)"/>
<path d="" fill="#357560" transform="translate(0,0)"/>
<path d="" fill="#387A63" transform="translate(0,0)"/>
<path d="" fill="#377861" transform="translate(0,0)"/>
<path d="" fill="#357661" transform="translate(0,0)"/>
<path d="" fill="#377B63" transform="translate(0,0)"/>
<path d="" fill="#357862" transform="translate(0,0)"/>
<path d="" fill="#377862" transform="translate(0,0)"/>
<path d="" fill="#347D66" transform="translate(0,0)"/>
<path d="" fill="#367B66" transform="translate(0,0)"/>
<path d="" fill="#357863" transform="translate(0,0)"/>
<path d="" fill="#357D62" transform="translate(0,0)"/>
<path d="" fill="#387B61" transform="translate(0,0)"/>
<path d="" fill="#3A7C65" transform="translate(0,0)"/>
<path d="" fill="#3A7F68" transform="translate(0,0)"/>
<path d="" fill="#377B65" transform="translate(0,0)"/>
<path d="" fill="#347A62" transform="translate(0,0)"/>
<path d="" fill="#347964" transform="translate(0,0)"/>
<path d="" fill="#3A7E67" transform="translate(0,0)"/>
<path d="" fill="#3A7F65" transform="translate(0,0)"/>
<path d="" fill="#397C65" transform="translate(0,0)"/>
<path d="" fill="#387C64" transform="translate(0,0)"/>
<path d="" fill="#377E62" transform="translate(0,0)"/>
<path d="" fill="#3A7D64" transform="translate(0,0)"/>
<path d="" fill="#397E61" transform="translate(0,0)"/>
<path d="" fill="#3A7D67" transform="translate(0,0)"/>
<path d="" fill="#377B60" transform="translate(0,0)"/>
<path d="" fill="#387C64" transform="translate(0,0)"/>
<path d="" fill="#3B7F66" transform="translate(0,0)"/>
<path d="" fill="#357A62" transform="translate(0,0)"/>
<path d="" fill="#387C65" transform="translate(0,0)"/>
<path d="" fill="#377D68" transform="translate(0,0)"/>
<path d="" fill="#388068" transform="translate(0,0)"/>
<path d="" fill="#3A8068" transform="translate(0,0)"/>
<path d="" fill="#357B62" transform="translate(0,0)"/>
<path d="" fill="#3A7F65" transform="translate(0,0)"/>
<path d="" fill="#347961" transform="translate(0,0)"/>
<path d="" fill="#3A7F65" transform="translate(0,0)"/>
<path d="" fill="#368069" transform="translate(0,0)"/>
<path d="" fill="#3B806A" transform="translate(0,0)"/>
<path d="" fill="#3D7B66" transform="translate(0,0)"/>
<path d="" fill="#3B7D67" transform="translate(0,0)"/>
<path d="" fill="#397D66" transform="translate(0,0)"/>
<path d="" fill="#3A7E68" transform="translate(0,0)"/>
<path d="" fill="#367D64" transform="translate(0,0)"/>
<path d="" fill="#3A7D68" transform="translate(0,0)"/>
<path d="" fill="#3B8168" transform="translate(0,0)"/>
<path d="" fill="#387C65" transform="translate(0,0)"/>
<path d="" fill="#3D806A" transform="translate(0,0)"/>
<path d="" fill="#367E67" transform="translate(0,0)"/>
<path d="" fill="#3A7E67" transform="translate(0,0)"/>
<path d="" fill="#397C67" transform="translate(0,0)"/>
<path d="" fill="#3A8065" transform="translate(0,0)"/>
<path d="" fill="#3B7F68" transform="translate(0,0)"/>
<path d="" fill="#377D67" transform="translate(0,0)"/>
<path d="" fill="#3A7B67" transform="translate(0,0)"/>
<path d="" fill="#397E66" transform="translate(0,0)"/>
<path d="" fill="#3B816C" transform="translate(0,0)"/>
<path d="" fill="#40816B" transform="translate(0,0)"/>
<path d="" fill="#3F7E64" transform="translate(0,0)"/>
<path d="" fill="#3A8068" transform="translate(0,0)"/>
<path d="" fill="#3A7E6C" transform="translate(0,0)"/>
<path d="" fill="#3A806B" transform="translate(0,0)"/>
<path d="" fill="#398169" transform="translate(0,0)"/>
<path d="" fill="#3C7E6A" transform="translate(0,0)"/>
<path d="" fill="#3C8166" transform="translate(0,0)"/>
<path d="" fill="#397B62" transform="translate(0,0)"/>
<path d="" fill="#3C7E67" transform="translate(0,0)"/>
<path d="" fill="#397962" transform="translate(0,0)"/>
<path d="" fill="#3B7E65" transform="translate(0,0)"/>
<path d="" fill="#357A63" transform="translate(0,0)"/>
<path d="" fill="#3B826A" transform="translate(0,0)"/>
<path d="" fill="#387C65" transform="translate(0,0)"/>
<path d="" fill="#3B8268" transform="translate(0,0)"/>
<path d="" fill="#3A7F66" transform="translate(0,0)"/>
<path d="" fill="#387F65" transform="translate(0,0)"/>
<path d="" fill="#3E826C" transform="translate(0,0)"/>
<path d="" fill="#347A62" transform="translate(0,0)"/>
<path d="" fill="#387D67" transform="translate(0,0)"/>
<path d="" fill="#3C8165" transform="translate(0,0)"/>
<path d="" fill="#3C7F67" transform="translate(0,0)"/>
<path d="" fill="#397E67" transform="translate(0,0)"/>
<path d="" fill="#3F846B" transform="translate(0,0)"/>
<path d="" fill="#3B8168" transform="translate(0,0)"/>
<path d="" fill="#3C7D69" transform="translate(0,0)"/>
<path d="" fill="#32785E" transform="translate(0,0)"/>
<path d="" fill="#3D806A" transform="translate(0,0)"/>
<path d="" fill="#397D64" transform="translate(0,0)"/>
<path d="" fill="#357A64" transform="translate(0,0)"/>
<path d="" fill="#3A7A5F" transform="translate(0,0)"/>
<path d="" fill="#3C8067" transform="translate(0,0)"/>
<path d="" fill="#3A7F68" transform="translate(0,0)"/>
<path d="" fill="#397E66" transform="translate(0,0)"/>
<path d="" fill="#3D8168" transform="translate(0,0)"/>
<path d="" fill="#397F67" transform="translate(0,0)"/>
<path d="" fill="#3B7F68" transform="translate(0,0)"/>
<path d="" fill="#397E64" transform="translate(0,0)"/>
<path d="" fill="#397D66" transform="translate(0,0)"/>
<path d="" fill="#3C7F68" transform="translate(0,0)"/>
<path d="" fill="#317863" transform="translate(0,0)"/>
<path d="" fill="#397E67" transform="translate(0,0)"/>
<path d="" fill="#367C64" transform="translate(0,0)"/>
<path d="" fill="#397C65" transform="translate(0,0)"/>
<path d="" fill="#3A7E66" transform="translate(0,0)"/>
<path d="" fill="#377C65" transform="translate(0,0)"/>
<path d="" fill="#3A7D65" transform="translate(0,0)"/>
<path d="" fill="#387962" transform="translate(0,0)"/>
<path d="" fill="#347A61" transform="translate(0,0)"/>
<path d="" fill="#387F67" transform="translate(0,0)"/>
<path d="" fill="#377D64" transform="translate(0,0)"/>
<path d="" fill="#397E66" transform="translate(0,0)"/>
<path d="" fill="#397B64" transform="translate(0,0)"/>
<path d="" fill="#3A7F67" transform="translate(0,0)"/>
<path d="" fill="#3C8167" transform="translate(0,0)"/>
<path d="" fill="#397E67" transform="translate(0,0)"/>
<path d="" fill="#397C69" transform="translate(0,0)"/>
<path d="" fill="#3B7D64" transform="translate(0,0)"/>
<path d="" fill="#377963" transform="translate(0,0)"/>
<path d="" fill="#3B7E69" transform="translate(0,0)"/>
<path d="" fill="#387D62" transform="translate(0,0)"/>
<path d="" fill="#357A65" transform="translate(0,0)"/>
<path d="" fill="#357C65" transform="translate(0,0)"/>
<path d="" fill="#3B7F65" transform="translate(0,0)"/>
<path d="" fill="#397D66" transform="translate(0,0)"/>
<path d="" fill="#397B66" transform="translate(0,0)"/>
<path d="" fill="#3A7E65" transform="translate(0,0)"/>
<path d="" fill="#397C66" transform="translate(0,0)"/>
<path d="" fill="#397F67" transform="translate(0,0)"/>
<path d="" fill="#3A7A64" transform="translate(0,0)"/>
<path d="" fill="#388067" transform="translate(0,0)"/>
<path d="" fill="#3E826A" transform="translate(0,0)"/>
<path d="" fill="#347A63" transform="translate(0,0)"/>
<path d="" fill="#357A62" transform="translate(0,0)"/>
<path d="" fill="#377C64" transform="translate(0,0)"/>
<path d="" fill="#3C7C66" transform="translate(0,0)"/>
<path d="" fill="#397E65" transform="translate(0,0)"/>
<path d="" fill="#3F826B" transform="translate(0,0)"/>
<path d="" fill="#3C7F6A" transform="translate(0,0)"/>
<path d="" fill="#3B7F67" transform="translate(0,0)"/>
<path d="" fill="#3B8068" transform="translate(0,0)"/>
<path d="" fill="#3A7F68" transform="translate(0,0)"/>
<path d="" fill="#387D65" transform="translate(0,0)"/>
<path d="" fill="#397F67" transform="translate(0,0)"/>
<path d="" fill="#3B8269" transform="translate(0,0)"/>
<path d="" fill="#3D8168" transform="translate(0,0)"/>
<path d="" fill="#3A7D64" transform="translate(0,0)"/>
<path d="" fill="#377A64" transform="translate(0,0)"/>
<path d="" fill="#3A7F68" transform="translate(0,0)"/>
<path d="" fill="#3A8168" transform="translate(0,0)"/>
<path d="" fill="#387E65" transform="translate(0,0)"/>
<path d="" fill="#387A60" transform="translate(0,0)"/>
<path d="" fill="#387F65" transform="translate(0,0)"/>
<path d="" fill="#387E68" transform="translate(0,0)"/>
<path d="" fill="#377C65" transform="translate(0,0)"/>
<path d="" fill="#367B65" transform="translate(0,0)"/>
<path d="" fill="#367861" transform="translate(0,0)"/>
<path d="" fill="#367C65" transform="translate(0,0)"/>
<path d="" fill="#397C62" transform="translate(0,0)"/>
<path d="" fill="#387C63" transform="translate(0,0)"/>
<path d="" fill="#387D65" transform="translate(0,0)"/>
<path d="" fill="#377A63" transform="translate(0,0)"/>
<path d="" fill="#377E66" transform="translate(0,0)"/>
<path d="" fill="#387B61" transform="translate(0,0)"/>
<path d="" fill="#397B64" transform="translate(0,0)"/>
<path d="" fill="#377C66" transform="translate(0,0)"/>
<path d="" fill="#377C64" transform="translate(0,0)"/>
<path d="" fill="#357A5F" transform="translate(0,0)"/>
<path d="" fill="#34745D" transform="translate(0,0)"/>
<path d="" fill="#397C63" transform="translate(0,0)"/>
<path d="" fill="#357B61" transform="translate(0,0)"/>
<path d="" fill="#357660" transform="translate(0,0)"/>
<path d="" fill="#377662" transform="translate(0,0)"/>
<path d="" fill="#377860" transform="translate(0,0)"/>
<path d="" fill="#357661" transform="translate(0,0)"/>
<path d="" fill="#38765F" transform="translate(0,0)"/>
<path d="" fill="#357561" transform="translate(0,0)"/>
<path d="" fill="#377762" transform="translate(0,0)"/>
<path d="" fill="#2F715D" transform="translate(0,0)"/>
<path d="" fill="#367560" transform="translate(0,0)"/>
<path d="" fill="#367860" transform="translate(0,0)"/>
<path d="" fill="#39745D" transform="translate(0,0)"/>
<path d="" fill="#387A62" transform="translate(0,0)"/>
<path d="" fill="#36785F" transform="translate(0,0)"/>
<path d="" fill="#36755F" transform="translate(0,0)"/>
<path d="" fill="#387661" transform="translate(0,0)"/>
<path d="" fill="#36755E" transform="translate(0,0)"/>
<path d="" fill="#33755F" transform="translate(0,0)"/>
<path d="" fill="#35775D" transform="translate(0,0)"/>
<path d="" fill="#35725B" transform="translate(0,0)"/>
<path d="" fill="#377761" transform="translate(0,0)"/>
<path d="" fill="#36725D" transform="translate(0,0)"/>
<path d="" fill="#38735E" transform="translate(0,0)"/>
<path d="" fill="#33705C" transform="translate(0,0)"/>
<path d="" fill="#35745D" transform="translate(0,0)"/>
<path d="" fill="#35725D" transform="translate(0,0)"/>
<path d="" fill="#34715A" transform="translate(0,0)"/>
<path d="" fill="#38755F" transform="translate(0,0)"/>
<path d="" fill="#34745F" transform="translate(0,0)"/>
<path d="" fill="#31705A" transform="translate(0,0)"/>
<path d="" fill="#39775F" transform="translate(0,0)"/>
<path d="" fill="#33755D" transform="translate(0,0)"/>
<path d="" fill="#34705E" transform="translate(0,0)"/>
<path d="" fill="#37735D" transform="translate(0,0)"/>
<path d="" fill="#347561" transform="translate(0,0)"/>
<path d="" fill="#34735F" transform="translate(0,0)"/>
<path d="" fill="#36735E" transform="translate(0,0)"/>
<path d="" fill="#37765E" transform="translate(0,0)"/>
<path d="" fill="#367560" transform="translate(0,0)"/>
<path d="" fill="#397A60" transform="translate(0,0)"/>
<path d="" fill="#37765F" transform="translate(0,0)"/>
<path d="" fill="#36755F" transform="translate(0,0)"/>
<path d="" fill="#33735E" transform="translate(0,0)"/>
<path d="" fill="#397763" transform="translate(0,0)"/>
<path d="" fill="#377660" transform="translate(0,0)"/>
<path d="" fill="#36745F" transform="translate(0,0)"/>
<path d="" fill="#35745E" transform="translate(0,0)"/>
<path d="" fill="#35725D" transform="translate(0,0)"/>
<path d="" fill="#367762" transform="translate(0,0)"/>
<path d="" fill="#397760" transform="translate(0,0)"/>
<path d="" fill="#367762" transform="translate(0,0)"/>
<path d="" fill="#377460" transform="translate(0,0)"/>
<path d="" fill="#34705C" transform="translate(0,0)"/>
<path d="" fill="#367862" transform="translate(0,0)"/>
<path d="" fill="#37765F" transform="translate(0,0)"/>
<path d="" fill="#357861" transform="translate(0,0)"/>
<path d="" fill="#387760" transform="translate(0,0)"/>
<path d="" fill="#36765D" transform="translate(0,0)"/>
<path d="" fill="#387862" transform="translate(0,0)"/>
<path d="" fill="#377762" transform="translate(0,0)"/>
<path d="" fill="#3A7762" transform="translate(0,0)"/>
<path d="" fill="#357764" transform="translate(0,0)"/>
<path d="" fill="#397C64" transform="translate(0,0)"/>
<path d="" fill="#3A7E65" transform="translate(0,0)"/>
<path d="" fill="#3C7E65" transform="translate(0,0)"/>
<path d="" fill="#3C8168" transform="translate(0,0)"/>
<path d="" fill="#3D7E66" transform="translate(0,0)"/>
<path d="" fill="#3D8467" transform="translate(0,0)"/>
<path d="" fill="#3C8065" transform="translate(0,0)"/>
<path d="" fill="#3E8066" transform="translate(0,0)"/>
<path d="" fill="#3C7D65" transform="translate(0,0)"/>
<path d="" fill="#3B7D67" transform="translate(0,0)"/>
<path d="" fill="#3C7F66" transform="translate(0,0)"/>
<path d="" fill="#3A7C64" transform="translate(0,0)"/>
<path d="" fill="#367762" transform="translate(0,0)"/>
<path d="" fill="#387B61" transform="translate(0,0)"/>
<path d="" fill="#387A62" transform="translate(0,0)"/>
<path d="" fill="#377A5F" transform="translate(0,0)"/>
<path d="" fill="#397D61" transform="translate(0,0)"/>
<path d="" fill="#367D66" transform="translate(0,0)"/>
<path d="" fill="#377A64" transform="translate(0,0)"/>
<path d="" fill="#397C64" transform="translate(0,0)"/>
<path d="" fill="#397D63" transform="translate(0,0)"/>
<path d="" fill="#397C61" transform="translate(0,0)"/>
<path d="" fill="#397B63" transform="translate(0,0)"/>
<path d="" fill="#3A7C62" transform="translate(0,0)"/>
<path d="" fill="#3A7A66" transform="translate(0,0)"/>
<path d="" fill="#387B64" transform="translate(0,0)"/>
<path d="" fill="#397A64" transform="translate(0,0)"/>
<path d="" fill="#3A7B63" transform="translate(0,0)"/>
<path d="" fill="#397C63" transform="translate(0,0)"/>
<path d="" fill="#387B64" transform="translate(0,0)"/>
<path d="" fill="#3A7C65" transform="translate(0,0)"/>
<path d="" fill="#397B65" transform="translate(0,0)"/>
<path d="" fill="#3A7E64" transform="translate(0,0)"/>
<path d="" fill="#397E66" transform="translate(0,0)"/>
<path d="" fill="#377B63" transform="translate(0,0)"/>
<path d="" fill="#387B63" transform="translate(0,0)"/>
<path d="" fill="#3A8067" transform="translate(0,0)"/>
<path d="" fill="#397D64" transform="translate(0,0)"/>
<path d="" fill="#397A61" transform="translate(0,0)"/>
<path d="" fill="#397B65" transform="translate(0,0)"/>
<path d="" fill="#3B7A63" transform="translate(0,0)"/>
<path d="" fill="#377A63" transform="translate(0,0)"/>
<path d="" fill="#367E67" transform="translate(0,0)"/>
<path d="" fill="#397D67" transform="translate(0,0)"/>
<path d="" fill="#387C66" transform="translate(0,0)"/>
<path d="" fill="#397B66" transform="translate(0,0)"/>
<path d="" fill="#367A67" transform="translate(0,0)"/>
<path d="" fill="#367562" transform="translate(0,0)"/>
</svg>
